<svg width="64" height="64" viewBox="0 0 64 64" fill="none" xmlns="http://www.w3.org/2000/svg">
    <path opacity="0.2"
        d="M32 64C49.6731 64 64 49.6731 64 32C64 14.3269 49.6731 0 32 0C14.3269 0 0 14.3269 0 32C0 49.6731 14.3269 64 32 64Z"
        fill="white" />
    <path fill-rule="evenodd" clip-rule="evenodd"
        d="M40.267 26.2874C40.9175 26.6126 40.9175 27.5408 40.267 27.8661L18.5075 38.7458C17.9207 39.0392 17.2303 38.6125 17.2303 37.9565L17.2303 16.197C17.2303 15.5409 17.9207 15.1142 18.5075 15.4076L40.267 26.2874Z"
        fill="white" />
    <path fill-rule="evenodd" clip-rule="evenodd"
        d="M31.1177 37.7132C30.4673 37.388 30.4673 36.4598 31.1177 36.1345L47.9542 27.7163C48.541 27.4229 49.2314 27.8496 49.2314 28.5056V45.3421C49.2314 45.9981 48.541 46.4248 47.9542 46.1314L31.1177 37.7132Z"
        fill="white" />
</svg>