<svg width="14" height="14" viewBox="0 0 14 14" fill="none" xmlns="http://www.w3.org/2000/svg">
    <path opacity="0.2"
        d="M6.61882 13.2376C10.2743 13.2376 13.2376 10.2743 13.2376 6.61882C13.2376 2.96335 10.2743 0 6.61882 0C2.96335 0 0 2.96335 0 6.61882C0 10.2743 2.96335 13.2376 6.61882 13.2376Z"
        fill="#001A3E" />
    <path fill-rule="evenodd" clip-rule="evenodd"
        d="M6.11399 3.19172C6.10816 3.18611 6.10816 3.1749 6.11399 3.16368L6.79074 2.05344C6.80241 2.03101 6.83158 2.03101 6.83741 2.05344L10.1803 7.54857C10.1862 7.55978 10.1803 7.571 10.1745 7.58221L8.24925 9.66251C8.24342 9.66812 8.23175 9.67372 8.22592 9.67372H6.66239C6.63322 9.67372 6.62155 9.64569 6.63906 9.62886L7.68335 8.4962L8.66347 7.44203C8.67514 7.43082 8.67514 7.4196 8.6693 7.40839L6.81408 4.34682L6.11399 3.19172ZM7.11997 9.04198L6.11326 10.1659C6.11043 10.1687 6.10619 10.1715 6.10195 10.1743C6.09771 10.1771 6.09347 10.1799 6.09064 10.1827H5.4572C5.44589 10.1827 5.44024 10.1771 5.43458 10.1715L3.56821 8.08669C3.56255 8.07545 3.56255 8.06421 3.56821 8.05297L5.89269 4.08568C5.904 4.06882 5.93228 4.06882 5.94359 4.08568L6.594 5.19832C6.59965 5.20394 6.59965 5.21518 6.594 5.22642L5.02172 7.90687C5.01606 7.91811 5.02172 7.92934 5.02737 7.94058L5.96621 8.98579C5.97187 8.99141 5.98318 8.99703 5.98884 8.99703H7.09735C7.12563 8.99703 7.13694 9.02513 7.11997 9.04198Z"
        fill="#001A3E" />
</svg>