<svg width="9" height="9" viewBox="0 0 9 9" fill="none" xmlns="http://www.w3.org/2000/svg">
    <path opacity="0.2"
        d="M4.028 8.05599C6.2526 8.05599 8.05599 6.2526 8.05599 4.028C8.05599 1.8034 6.2526 0 4.028 0C1.8034 0 0 1.8034 0 4.028C0 6.2526 1.8034 8.05599 4.028 8.05599Z"
        fill="white" />
    <path fill-rule="evenodd" clip-rule="evenodd"
        d="M3.72093 1.94238C3.71738 1.93896 3.71738 1.93214 3.72093 1.92531L4.13277 1.24966C4.13987 1.23601 4.15763 1.23601 4.16118 1.24966L6.19556 4.59381C6.19911 4.60064 6.19556 4.60746 6.19201 4.61429L5.02038 5.88029C5.01682 5.8837 5.00972 5.88711 5.00617 5.88711H4.05466C4.03691 5.88711 4.02981 5.87005 4.04046 5.85981L4.67599 5.17051L5.27245 4.52898C5.27955 4.52215 5.27955 4.51533 5.276 4.5085L4.14697 2.64533L3.72093 1.94238ZM4.33298 5.50278L3.72033 6.18673C3.71861 6.18844 3.71603 6.19015 3.71345 6.19186C3.71087 6.19357 3.70828 6.19528 3.70656 6.19699H3.32108C3.31419 6.19699 3.31075 6.19357 3.30731 6.19015L2.17149 4.92142C2.16805 4.91458 2.16805 4.90774 2.17149 4.9009L3.5861 2.48654C3.59298 2.47628 3.61019 2.47628 3.61708 2.48654L4.01289 3.16365C4.01633 3.16707 4.01633 3.17391 4.01289 3.18075L3.05605 4.81198C3.05261 4.81882 3.05605 4.82566 3.05949 4.8325L3.63084 5.46858C3.63428 5.472 3.64117 5.47542 3.64461 5.47542H4.31922C4.33642 5.47542 4.34331 5.49252 4.33298 5.50278Z"
        fill="white" />
</svg>