<svg width="220" height="220" viewBox="0 0 220 220" fill="none" xmlns="http://www.w3.org/2000/svg">
    <g clip-path="url(#clip0_4085_48306)">
        <path
            d="M110 220C170.751 220 220 170.751 220 110C220 49.2487 170.751 0 110 0C49.2487 0 0 49.2487 0 110C0 170.751 49.2487 220 110 220Z"
            fill="#0D4EA0" />
        <path
            d="M97.9628 171.586C97.8666 171.682 97.6741 171.779 97.5778 171.875H86.9078C86.7153 171.875 86.6191 171.779 86.5228 171.682L55.0697 136.153C55.0239 136.064 55 135.967 55 135.867C55 135.768 55.0239 135.67 55.0697 135.582L94.2435 67.9662C94.436 67.6844 94.9103 67.6844 95.1028 67.9662L106.062 86.9275C106.158 87.0238 106.158 87.2162 106.062 87.4087L79.5653 133.093C79.4691 133.279 79.5653 133.471 79.6616 133.664L95.481 151.477C95.5867 151.579 95.721 151.646 95.866 151.669H114.545C115.027 151.669 115.212 152.151 114.923 152.433L97.9628 171.586ZM109.582 41.5388C109.781 41.1538 110.255 41.1538 110.352 41.5388L164.96 135.382C165.056 135.582 164.96 135.774 164.863 135.96L133.417 171.49C133.311 171.592 133.177 171.659 133.032 171.682H107.492C107.01 171.682 106.825 171.201 107.113 170.919L124.17 151.573L140.182 133.567C140.375 133.375 140.375 133.182 140.278 132.997L109.967 80.7056L98.5335 60.9744C98.4372 60.885 98.4372 60.6925 98.5335 60.4931L109.582 41.5388Z"
            fill="white" />
    </g>
    <defs>
        <clipPath id="clip0_4085_48306">
            <rect width="220" height="220" fill="white" />
        </clipPath>
    </defs>
</svg>