<svg width="9" height="9" viewBox="0 0 9 9" fill="none" xmlns="http://www.w3.org/2000/svg">
    <path opacity="0.2"
        d="M4.028 8.05599C6.2526 8.05599 8.05599 6.2526 8.05599 4.028C8.05599 1.8034 6.2526 0 4.028 0C1.8034 0 0 1.8034 0 4.028C0 6.2526 1.8034 8.05599 4.028 8.05599Z"
        fill="white" />
    <path fill-rule="evenodd" clip-rule="evenodd"
        d="M4.06391 4.64077C4.44735 4.64077 4.75819 4.33195 4.75819 3.951C4.75819 3.57005 4.44735 3.26123 4.06391 3.26123C3.68047 3.26123 3.36963 3.57005 3.36963 3.951C3.36963 4.33195 3.68047 4.64077 4.06391 4.64077Z"
        fill="white" />
    <path fill-rule="evenodd" clip-rule="evenodd"
        d="M4.06375 6.37607C5.41199 6.37607 6.50495 5.29021 6.50495 3.95073C6.50495 2.61125 5.41199 1.52539 4.06375 1.52539C2.71552 1.52539 1.62256 2.61125 1.62256 3.95073C1.62256 5.29021 2.71552 6.37607 4.06375 6.37607Z"
        stroke="white" stroke-width="0.167833" />
    <path fill-rule="evenodd" clip-rule="evenodd"
        d="M5.28816 2.61713C5.67114 2.61713 5.9816 2.30868 5.9816 1.92819C5.9816 1.5477 5.67114 1.23926 5.28816 1.23926C4.90519 1.23926 4.59473 1.5477 4.59473 1.92819C4.59473 2.30868 4.90519 2.61713 5.28816 2.61713Z"
        fill="white" />
    <path fill-rule="evenodd" clip-rule="evenodd"
        d="M5.26326 6.81537C5.64624 6.81537 5.9567 6.50692 5.9567 6.12644C5.9567 5.74595 5.64624 5.4375 5.26326 5.4375C4.88029 5.4375 4.56982 5.74595 4.56982 6.12644C4.56982 6.50692 4.88029 6.81537 5.26326 6.81537Z"
        fill="white" />
    <path fill-rule="evenodd" clip-rule="evenodd"
        d="M1.62313 4.79486C2.0061 4.79486 2.31656 4.48642 2.31656 4.10593C2.31656 3.72544 2.0061 3.41699 1.62313 3.41699C1.24015 3.41699 0.929688 3.72544 0.929688 4.10593C0.929688 4.48642 1.24015 4.79486 1.62313 4.79486Z"
        fill="white" />
</svg>