<svg width="14" height="14" viewBox="0 0 14 14" fill="none" xmlns="http://www.w3.org/2000/svg">
    <path opacity="0.2"
        d="M6.61882 13.2376C10.2743 13.2376 13.2376 10.2743 13.2376 6.61882C13.2376 2.96335 10.2743 0 6.61882 0C2.96335 0 0 2.96335 0 6.61882C0 10.2743 2.96335 13.2376 6.61882 13.2376Z"
        fill="#57BEEA" />
    <path fill-rule="evenodd" clip-rule="evenodd"
        d="M6.67795 7.62527C7.30802 7.62527 7.81879 7.11781 7.81879 6.49183C7.81879 5.86585 7.30802 5.3584 6.67795 5.3584C6.04788 5.3584 5.53711 5.86585 5.53711 6.49183C5.53711 7.11781 6.04788 7.62527 6.67795 7.62527Z"
        fill="#57BEEA" />
    <path fill-rule="evenodd" clip-rule="evenodd"
        d="M6.67788 10.477C8.89331 10.477 10.6893 8.69272 10.6893 6.49168C10.6893 4.29064 8.89331 2.50635 6.67788 2.50635C4.46246 2.50635 2.6665 4.29064 2.6665 6.49168C2.6665 8.69272 4.46246 10.477 6.67788 10.477Z"
        stroke="#57BEEA" stroke-width="0.275784" />
    <path fill-rule="evenodd" clip-rule="evenodd"
        d="M8.68926 4.30025C9.31857 4.30025 9.82873 3.79341 9.82873 3.16819C9.82873 2.54297 9.31857 2.03613 8.68926 2.03613C8.05996 2.03613 7.5498 2.54297 7.5498 3.16819C7.5498 3.79341 8.05996 4.30025 8.68926 4.30025Z"
        fill="#57BEEA" />
    <path fill-rule="evenodd" clip-rule="evenodd"
        d="M8.64874 11.1987C9.27804 11.1987 9.7882 10.6919 9.7882 10.0666C9.7882 9.44141 9.27804 8.93457 8.64874 8.93457C8.01943 8.93457 7.50928 9.44141 7.50928 10.0666C7.50928 10.6919 8.01943 11.1987 8.64874 11.1987Z"
        fill="#57BEEA" />
    <path fill-rule="evenodd" clip-rule="evenodd"
        d="M2.6668 7.87838C3.29611 7.87838 3.80626 7.37154 3.80626 6.74632C3.80626 6.1211 3.29611 5.61426 2.6668 5.61426C2.0375 5.61426 1.52734 6.1211 1.52734 6.74632C1.52734 7.37154 2.0375 7.87838 2.6668 7.87838Z"
        fill="#57BEEA" />
</svg>