<svg width="16" height="16" viewBox="0 0 16 16" fill="none" xmlns="http://www.w3.org/2000/svg">
    <path
        d="M9.15711 2.29703L10.3322 4.66294C10.4905 4.99015 10.9156 5.30057 11.2739 5.36769L13.3991 5.72006C14.7575 5.94658 15.0742 6.93657 14.0991 7.92657L12.4407 9.59613C12.1656 9.87299 12.0073 10.4183 12.099 10.8126L12.574 12.8765C12.949 14.5041 12.0823 15.1418 10.6572 14.286L8.66541 13.0947C8.30705 12.8765 7.70701 12.8765 7.34865 13.0947L5.35685 14.286C3.93175 15.1334 3.06503 14.5041 3.44005 12.8765L3.91509 10.8126C3.99009 10.4099 3.83175 9.8646 3.55673 9.58774L1.89828 7.91818C0.923215 6.93657 1.2399 5.94658 2.59833 5.71167L4.72347 5.3593C5.08183 5.30057 5.50686 4.98176 5.66521 4.65456L6.84029 2.28864C7.482 1.01339 8.5154 1.01339 9.15711 2.29703Z"
        fill="#FFC107" />
</svg>