<svg width="25" height="24" viewBox="0 0 25 24" fill="none" xmlns="http://www.w3.org/2000/svg">
<path d="M12.4998 0C5.87253 0 0.5 5.39238 0.5 12.0441C0.5 17.6923 4.37448 22.4319 9.6011 23.7336V15.7248H7.12675V12.0441H9.6011V10.4581C9.6011 6.35879 11.4495 4.45872 15.4594 4.45872C16.2197 4.45872 17.5315 4.60855 18.0681 4.75789V8.0941C17.7849 8.06423 17.2929 8.0493 16.6819 8.0493C14.7144 8.0493 13.9541 8.79748 13.9541 10.7424V12.0441H17.8737L17.2003 15.7248H13.9541V24C19.8959 23.2798 24.5 18.202 24.5 12.0441C24.4995 5.39238 19.127 0 12.4998 0Z" fill="#E0E0E0"/>
</svg>
