<svg width="141" height="51" viewBox="0 0 141 51" fill="none" xmlns="http://www.w3.org/2000/svg">
<path d="M45.1766 34.4816C47.8673 34.3491 50.3054 32.6415 50.7946 29.9923C51.072 28.4899 51.217 26.9411 51.217 25.3585C51.217 11.3534 39.8636 0 25.8585 0C21.5413 0 17.476 1.07885 13.9177 2.98166C10.3011 4.91558 12.3429 9.36095 16.441 9.20395C21.373 9.01502 26.4896 8.91705 30.626 9.06267C32.6845 9.13513 34.5927 9.27065 36.151 9.50666C36.9274 9.62426 37.7018 9.7791 38.4036 9.9952C39.0223 10.1857 39.9636 10.5332 40.7694 11.233C42.296 12.5588 42.4786 14.3999 42.1701 15.7246C41.9174 16.8097 41.3375 17.6911 40.9176 18.2554C40.0245 19.4555 38.6788 20.739 37.304 21.9481C35.4839 23.5489 33.1401 25.4183 30.8158 27.272C29.6019 28.2402 28.3933 29.2041 27.2674 30.1233C25.5719 31.5076 24.0205 32.8226 22.7514 34.0136C21.9091 34.8041 22.3718 35.6049 23.5255 35.5481L45.1766 34.4816Z" fill="#FFC107"/>
<path d="M30.5416 41.7955C36.3025 41.7955 38.6066 48.0341 33.0837 49.6728C30.7939 50.3522 28.3688 50.717 25.8585 50.717C11.8534 50.717 0.5 39.3636 0.5 25.3585C0.5 23.2766 0.75088 21.2533 1.22406 19.3172C1.48704 18.2411 2.44815 17.5027 3.5535 17.43C7.10302 17.1965 11.8624 16.9169 16.721 16.7308C21.5954 16.5441 26.5015 16.4542 30.3687 16.5904C31.1177 16.6167 31.404 17.6558 30.8063 18.108C29.5342 19.0706 28.1166 20.0616 26.7244 21.1713C25.4747 22.1674 24.0594 23.1727 22.766 24.2287C21.027 25.6484 19.169 27.1163 17.7122 28.4836C16.3004 29.8086 14.9298 31.2403 14.021 32.6405C13.5705 33.3344 13.0768 34.2547 12.8616 35.3257C12.6273 36.4918 12.7086 37.9949 13.6782 39.3437C14.5664 40.5794 15.8208 41.145 16.7878 41.42C17.7807 41.7024 18.8729 41.7955 19.9703 41.7955H30.5416Z" fill="#FFC107"/>
<path d="M36.3911 17.2535C36.3906 17.2537 36.38 17.2497 36.3611 17.2408C36.3821 17.2488 36.3916 17.2532 36.3911 17.2535Z" fill="#FFC107"/>
<path d="M35.0926 13.5751C35.0935 13.5734 35.0937 13.5734 35.0926 13.5751V13.5751Z" fill="#FFC107"/>
<path d="M18.7879 34.1665C18.7869 34.1662 18.7869 34.1661 18.7879 34.1665V34.1665Z" fill="#FFC107"/>
<path d="M70.032 32.5824H80.08V36.3584H64.848V32.9024L74.832 17.7984H64.848V14.0224H80.08V17.4784L70.032 32.5824ZM100.854 18.6304L89.8775 44.7424H85.1095L88.9495 35.9104L81.8455 18.6304H86.8695L91.4455 31.0144L96.0855 18.6304H100.854Z" fill="#F5F5F5"/>
<path d="M107.749 21.3824C108.325 20.4437 109.071 19.7077 109.989 19.1744C110.927 18.6411 111.994 18.3744 113.189 18.3744V23.0784H112.005C110.597 23.0784 109.53 23.4091 108.805 24.0704C108.101 24.7317 107.749 25.8837 107.749 27.5264V36.3584H103.269V18.6304H107.749V21.3824ZM118.478 16.5184C117.689 16.5184 117.027 16.2731 116.494 15.7824C115.982 15.2704 115.726 14.6411 115.726 13.8944C115.726 13.1477 115.982 12.5291 116.494 12.0384C117.027 11.5264 117.689 11.2704 118.478 11.2704C119.267 11.2704 119.918 11.5264 120.43 12.0384C120.963 12.5291 121.23 13.1477 121.23 13.8944C121.23 14.6411 120.963 15.2704 120.43 15.7824C119.918 16.2731 119.267 16.5184 118.478 16.5184ZM120.686 18.6304V36.3584H116.206V18.6304H120.686ZM134.904 36.3584L131.256 30.8544L128.024 36.3584H123.224L129.016 27.4624L123.16 18.6304H128.216L131.832 24.1024L135.096 18.6304H139.896L134.072 27.4624L139.96 36.3584H134.904Z" fill="#FFC107"/>
</svg>
