<svg width="132" height="60" viewBox="0 0 132 60" fill="none" xmlns="http://www.w3.org/2000/svg">
<path d="M28.1888 35.7563C29.8865 35.6726 31.4248 34.5952 31.7335 32.9237C31.9085 31.9758 32 30.9986 32 30C32 21.1634 24.8366 14 16 14C13.276 14 10.7111 14.6807 8.46591 15.8813C6.18402 17.1015 7.47228 19.9063 10.058 19.8073C13.1699 19.688 16.3982 19.6262 19.0081 19.7181C20.3069 19.7638 21.5109 19.8493 22.4941 19.9983C22.984 20.0725 23.4725 20.1701 23.9154 20.3065C24.3057 20.4267 24.8996 20.6459 25.4081 21.0875C26.3713 21.924 26.4865 23.0856 26.2918 23.9215C26.1324 24.6061 25.7665 25.1623 25.5016 25.5183C24.9381 26.2755 24.089 27.0853 23.2216 27.8482C22.0732 28.8583 20.5943 30.0377 19.1278 31.2073C18.3619 31.8182 17.5993 32.4264 16.889 33.0064C15.8192 33.8798 14.8403 34.7095 14.0396 35.461C13.5081 35.9597 13.8001 36.465 14.528 36.4292L28.1888 35.7563Z" fill="#FFC107"/>
<path d="M18.9548 40.371C22.5897 40.371 24.0435 44.3072 20.5588 45.3412C19.114 45.7699 17.5839 46 16 46C7.16344 46 0 38.8366 0 30C0 28.6864 0.158293 27.4098 0.456846 26.1882C0.622778 25.5093 1.22919 25.0434 1.92661 24.9975C4.16619 24.8502 7.16915 24.6738 10.2347 24.5564C13.3102 24.4385 16.4057 24.3818 18.8457 24.4677C19.3183 24.4844 19.4989 25.14 19.1219 25.4253C18.3192 26.0326 17.4248 26.6579 16.5463 27.3581C15.7578 27.9866 14.8649 28.6208 14.0488 29.2871C12.9516 30.1829 11.7793 31.1091 10.8601 31.9718C9.9693 32.8078 9.10453 33.7111 8.53111 34.5946C8.24689 35.0324 7.93534 35.6131 7.79958 36.2888C7.65175 37.0246 7.70305 37.973 8.3148 38.824C8.87523 39.6037 9.66667 39.9605 10.2768 40.1341C10.9033 40.3122 11.5925 40.371 12.2848 40.371H18.9548Z" fill="#FFC107"/>
<path d="M22.6456 24.8861C22.6452 24.8863 22.6386 24.8838 22.6266 24.8781C22.6399 24.8832 22.6459 24.886 22.6456 24.8861Z" fill="#FFC107"/>
<path d="M21.8263 22.5652C21.8269 22.5641 21.8269 22.5642 21.8263 22.5652V22.5652Z" fill="#FFC107"/>
<path d="M11.5388 35.5574C11.5381 35.5572 11.5381 35.5572 11.5388 35.5574V35.5574Z" fill="#FFC107"/>
<path d="M47.6773 40.04H60.5973V44H42.2773V40.44L55.1573 20.16H42.2773V16.2H60.5973V19.76L47.6773 40.04ZM85.422 21.96L71.902 54.36H67.182L71.662 43.64L62.982 21.96H68.062L74.262 38.76L80.702 21.96H85.422Z" fill="#F5F5F5"/>
<path d="M93.4233 25.16C94.0899 24.04 94.9699 23.1733 96.0633 22.56C97.1833 21.92 98.5033 21.6 100.023 21.6V26.32H98.8633C97.0766 26.32 95.7166 26.7733 94.7833 27.68C93.8766 28.5867 93.4233 30.16 93.4233 32.4V44H88.8633V21.96H93.4233V25.16ZM106.535 19.04C105.708 19.04 105.015 18.76 104.455 18.2C103.895 17.64 103.615 16.9467 103.615 16.12C103.615 15.2933 103.895 14.6 104.455 14.04C105.015 13.48 105.708 13.2 106.535 13.2C107.335 13.2 108.015 13.48 108.575 14.04C109.135 14.6 109.415 15.2933 109.415 16.12C109.415 16.9467 109.135 17.64 108.575 18.2C108.015 18.76 107.335 19.04 106.535 19.04ZM108.775 21.96V44H104.215V21.96H108.775ZM124.202 32.84L131.322 44H126.162L121.402 36.52L116.922 44H112.162L119.282 33.16L112.162 21.96H117.322L122.082 29.44L126.562 21.96H131.322L124.202 32.84Z" fill="#FFC107"/>
</svg>
