<svg width="220" height="220" viewBox="0 0 220 220" fill="none" xmlns="http://www.w3.org/2000/svg">
<g clip-path="url(#clip0_4085_49125)">
<path d="M110 220C170.751 220 220 170.751 220 110C220 49.2487 170.751 0 110 0C49.2487 0 0 49.2487 0 110C0 170.751 49.2487 220 110 220Z" fill="#26A17B"/>
<path fill-rule="evenodd" clip-rule="evenodd" d="M123.214 119.51V119.496C122.458 119.551 118.559 119.785 109.862 119.785C102.919 119.785 98.0306 119.579 96.3119 119.496V119.517C69.5819 118.341 49.6306 113.687 49.6306 108.118C49.6306 102.556 69.5819 97.9019 96.3119 96.7057V114.883C98.0581 115.007 103.063 115.303 109.979 115.303C118.277 115.303 122.437 114.959 123.214 114.89V96.7194C149.889 97.9088 169.792 102.563 169.792 108.118C169.792 113.687 149.889 118.328 123.214 119.51ZM123.214 94.8288V78.5626H160.435V53.7576H59.0906V78.5626H96.3119V94.8219C66.0619 96.2107 43.3125 102.206 43.3125 109.383C43.3125 116.561 66.0619 122.549 96.3119 123.944V176.071H123.214V123.931C153.416 122.542 176.11 116.554 176.11 109.383C176.11 102.213 153.416 96.2244 123.214 94.8288Z" fill="white"/>
</g>
<defs>
<clipPath id="clip0_4085_49125">
<rect width="220" height="220" fill="white"/>
</clipPath>
</defs>
</svg>
