<svg xmlns="http://www.w3.org/2000/svg" xmlns:xlink="http://www.w3.org/1999/xlink">

    <!-- LSK -->
    <symbol id="LSK-white" viewBox="0 0 220 220" fill="none"
        xmlns="http://www.w3.org/2000/svg">
        <path opacity="0.2"
            d="M110 220C170.751 220 220 170.751 220 110C220 49.2487 170.751 0 110 0C49.2487 0 0 49.2487 0 110C0 170.751 49.2487 220 110 220Z"
            fill="white" />
        <path fill-rule="evenodd" clip-rule="evenodd"
            d="M97.9628 171.586C97.8666 171.682 97.6741 171.779 97.5778 171.875H86.9078C86.7153 171.875 86.6191 171.779 86.5228 171.682L55.0697 136.153C55.0239 136.064 55 135.967 55 135.867C55 135.768 55.0239 135.67 55.0697 135.582L94.2435 67.9662C94.436 67.6844 94.9103 67.6844 95.1028 67.9662L106.062 86.9275C106.158 87.0238 106.158 87.2162 106.062 87.4087L79.5653 133.093C79.4691 133.279 79.5653 133.471 79.6616 133.664L95.481 151.477C95.5867 151.579 95.721 151.646 95.866 151.669H114.545C115.027 151.669 115.212 152.151 114.923 152.433L97.9628 171.586ZM109.582 41.5388C109.781 41.1538 110.255 41.1538 110.352 41.5388L164.96 135.382C165.056 135.582 164.96 135.774 164.863 135.96L133.417 171.49C133.311 171.592 133.177 171.659 133.032 171.682H107.492C107.01 171.682 106.825 171.201 107.113 170.919L124.17 151.573L140.182 133.567C140.375 133.375 140.375 133.182 140.278 132.997L109.967 80.7056L98.5335 60.9744C98.4372 60.885 98.4372 60.6925 98.5335 60.4931L109.582 41.5388Z"
            fill="white" />
    </symbol>

    <symbol id='LSK-colored' viewBox="0 0 220 220" fill="none" xmlns="http://www.w3.org/2000/svg">
        <path opacity="0.2"
            d="M110 220C170.751 220 220 170.751 220 110C220 49.2487 170.751 0 110 0C49.2487 0 0 49.2487 0 110C0 170.751 49.2487 220 110 220Z"
            fill="#001A3E" />
        <path fill-rule="evenodd" clip-rule="evenodd"
            d="M97.9628 171.586C97.8666 171.682 97.6741 171.779 97.5778 171.875H86.9078C86.7153 171.875 86.6191 171.779 86.5228 171.682L55.0697 136.153C55.0239 136.064 55 135.967 55 135.867C55 135.768 55.0239 135.67 55.0697 135.582L94.2435 67.9662C94.436 67.6844 94.9103 67.6844 95.1028 67.9662L106.062 86.9275C106.158 87.0238 106.158 87.2162 106.062 87.4087L79.5653 133.093C79.4691 133.279 79.5653 133.471 79.6616 133.664L95.481 151.477C95.5867 151.579 95.721 151.646 95.866 151.669H114.545C115.027 151.669 115.212 152.151 114.923 152.433L97.9628 171.586ZM109.582 41.5388C109.781 41.1538 110.255 41.1538 110.352 41.5388L164.96 135.382C165.056 135.582 164.96 135.774 164.863 135.96L133.417 171.49C133.311 171.592 133.177 171.659 133.032 171.682H107.492C107.01 171.682 106.825 171.201 107.113 170.919L124.17 151.573L140.182 133.567C140.375 133.375 140.375 133.182 140.278 132.997L109.967 80.7056L98.5335 60.9744C98.4372 60.885 98.4372 60.6925 98.5335 60.4931L109.582 41.5388Z"
            fill="#001A3E" />

    </symbol>

    <symbol id='LSK-base' viewBox="0 0 220 220" fill="none"
        xmlns="http://www.w3.org/2000/svg">
        <g clip-path="url(#clip0_4085_48306)">
            <path
                d="M110 220C170.751 220 220 170.751 220 110C220 49.2487 170.751 0 110 0C49.2487 0 0 49.2487 0 110C0 170.751 49.2487 220 110 220Z"
                fill="#0D4EA0" />
            <path
                d="M97.9628 171.586C97.8666 171.682 97.6741 171.779 97.5778 171.875H86.9078C86.7153 171.875 86.6191 171.779 86.5228 171.682L55.0697 136.153C55.0239 136.064 55 135.967 55 135.867C55 135.768 55.0239 135.67 55.0697 135.582L94.2435 67.9662C94.436 67.6844 94.9103 67.6844 95.1028 67.9662L106.062 86.9275C106.158 87.0238 106.158 87.2162 106.062 87.4087L79.5653 133.093C79.4691 133.279 79.5653 133.471 79.6616 133.664L95.481 151.477C95.5867 151.579 95.721 151.646 95.866 151.669H114.545C115.027 151.669 115.212 152.151 114.923 152.433L97.9628 171.586ZM109.582 41.5388C109.781 41.1538 110.255 41.1538 110.352 41.5388L164.96 135.382C165.056 135.582 164.96 135.774 164.863 135.96L133.417 171.49C133.311 171.592 133.177 171.659 133.032 171.682H107.492C107.01 171.682 106.825 171.201 107.113 170.919L124.17 151.573L140.182 133.567C140.375 133.375 140.375 133.182 140.278 132.997L109.967 80.7056L98.5335 60.9744C98.4372 60.885 98.4372 60.6925 98.5335 60.4931L109.582 41.5388Z"
                fill="white" />
        </g>
        <defs>
            <clipPath id="clip0_4085_48306">
                <rect width="220" height="220" fill="white" />
            </clipPath>
        </defs>
    </symbol>

    <!-- ION -->
    <symbol id='ION-base' viewBox="0 0 220 220" fill="none"
        xmlns="http://www.w3.org/2000/svg">
        <g clip-path="url(#clip0_4085_48165)">
            <path
                d="M110 220C170.751 220 220 170.751 220 110C220 49.2487 170.751 0 110 0C49.2487 0 0 49.2487 0 110C0 170.751 49.2487 220 110 220Z"
                fill="#57BEEA" />
            <path
                d="M48.3038 130.687C45.6872 130.992 43.0357 130.739 40.524 129.945C38.0122 129.151 35.6973 127.833 33.7317 126.079C31.7661 124.326 30.1945 122.175 29.1203 119.77C28.0462 117.364 27.494 114.759 27.5 112.124C27.4889 107.208 29.4201 102.486 32.8734 98.9862C36.3267 95.4865 41.0225 93.4925 45.9388 93.4381C52.5388 63.1194 79.4201 40.425 111.568 40.425C117.569 40.425 123.393 41.2156 128.927 42.6938C130.619 40.136 132.919 38.0375 135.621 36.5858C138.323 35.1342 141.342 34.3746 144.409 34.375C149.353 34.3877 154.09 36.3634 157.577 39.8676C161.064 43.3717 163.017 48.1175 163.006 53.0612C163.006 56.2856 162.195 59.3175 160.765 61.9575C172.354 74.4562 178.779 90.8794 178.75 107.924C178.766 116.851 177.009 125.693 173.582 133.936C170.155 142.18 165.125 149.661 158.785 155.946C161.026 159.026 162.346 162.827 162.346 166.939C162.352 169.387 161.875 171.813 160.943 174.077C160.011 176.341 158.642 178.4 156.914 180.135C155.187 181.87 153.135 183.248 150.875 184.19C148.615 185.132 146.191 185.62 143.743 185.625C139.999 185.621 136.343 184.487 133.254 182.373C130.164 180.258 127.784 177.261 126.424 173.772C121.551 174.874 116.57 175.427 111.574 175.423C82.4176 175.423 57.5988 156.764 48.3038 130.687ZM51.6725 129.965C60.61 154.495 84.0538 172.006 111.568 172.006C116.346 172.006 121 171.476 125.476 170.479C124.947 167.781 125.023 164.999 125.696 162.333C126.369 159.667 127.623 157.183 129.369 155.059C131.115 152.935 133.309 151.223 135.794 150.046C138.279 148.87 140.993 148.257 143.743 148.252C148.693 148.252 153.203 150.198 156.53 153.368C162.507 147.407 167.246 140.323 170.476 132.524C173.705 124.725 175.361 116.365 175.347 107.924C175.347 91.355 169.091 76.2575 158.813 64.8862C155.403 69.08 150.219 71.7544 144.409 71.7544C141.96 71.749 139.536 71.2611 137.276 70.3187C135.015 69.3762 132.963 67.9977 131.235 66.2618C129.507 64.5259 128.139 62.4666 127.207 60.2016C126.276 57.9367 125.799 55.5103 125.806 53.0612C125.806 50.49 126.328 48.0356 127.263 45.8013C122.133 44.5 116.86 43.8441 111.568 43.8487C81.2076 43.8487 55.7976 65.1681 49.3694 93.7269C53.6766 94.5089 57.5719 96.7799 60.3744 100.143C63.1769 103.506 64.7082 107.747 64.7007 112.124C64.7069 116.098 63.4465 119.969 61.1025 123.178C58.7585 126.386 55.4529 128.763 51.6657 129.965H51.6725ZM111.568 126.637C109.116 126.631 106.69 126.142 104.428 125.198C102.166 124.254 100.112 122.874 98.383 121.136C96.6542 119.399 95.2846 117.337 94.3525 115.07C93.4203 112.803 92.9437 110.375 92.9501 107.924C92.9501 97.5906 101.283 89.2169 111.568 89.2169C121.853 89.2169 130.192 97.5906 130.192 107.924C130.198 110.376 129.721 112.805 128.789 115.072C127.856 117.34 126.486 119.401 124.757 121.139C123.027 122.877 120.972 124.257 118.709 125.2C116.446 126.144 114.019 126.632 111.568 126.637Z"
                fill="white" />
        </g>
        <defs>
            <clipPath id="clip0_4085_48165">
                <rect width="220" height="220" fill="white" />
            </clipPath>
        </defs>
    </symbol>

    <symbol id="ION-colored" viewBox="0 0 220 220" fill="none"
        xmlns="http://www.w3.org/2000/svg">
        <path opacity="0.2"
            d="M6.61882 13.2376C10.2743 13.2376 13.2376 10.2743 13.2376 6.61882C13.2376 2.96335 10.2743 0 6.61882 0C2.96335 0 0 2.96335 0 6.61882C0 10.2743 2.96335 13.2376 6.61882 13.2376Z"
            fill="#57BEEA" />
        <path fill-rule="evenodd" clip-rule="evenodd"
            d="M6.67795 7.62527C7.30802 7.62527 7.81879 7.11781 7.81879 6.49183C7.81879 5.86585 7.30802 5.3584 6.67795 5.3584C6.04788 5.3584 5.53711 5.86585 5.53711 6.49183C5.53711 7.11781 6.04788 7.62527 6.67795 7.62527Z"
            fill="#57BEEA" />
        <path fill-rule="evenodd" clip-rule="evenodd"
            d="M6.67788 10.477C8.89331 10.477 10.6893 8.69272 10.6893 6.49168C10.6893 4.29064 8.89331 2.50635 6.67788 2.50635C4.46246 2.50635 2.6665 4.29064 2.6665 6.49168C2.6665 8.69272 4.46246 10.477 6.67788 10.477Z"
            stroke="#57BEEA" stroke-width="0.275784" />
        <path fill-rule="evenodd" clip-rule="evenodd"
            d="M8.68926 4.30025C9.31857 4.30025 9.82873 3.79341 9.82873 3.16819C9.82873 2.54297 9.31857 2.03613 8.68926 2.03613C8.05996 2.03613 7.5498 2.54297 7.5498 3.16819C7.5498 3.79341 8.05996 4.30025 8.68926 4.30025Z"
            fill="#57BEEA" />
        <path fill-rule="evenodd" clip-rule="evenodd"
            d="M8.64874 11.1987C9.27804 11.1987 9.7882 10.6919 9.7882 10.0666C9.7882 9.44141 9.27804 8.93457 8.64874 8.93457C8.01943 8.93457 7.50928 9.44141 7.50928 10.0666C7.50928 10.6919 8.01943 11.1987 8.64874 11.1987Z"
            fill="#57BEEA" />
        <path fill-rule="evenodd" clip-rule="evenodd"
            d="M2.6668 7.87838C3.29611 7.87838 3.80626 7.37154 3.80626 6.74632C3.80626 6.1211 3.29611 5.61426 2.6668 5.61426C2.0375 5.61426 1.52734 6.1211 1.52734 6.74632C1.52734 7.37154 2.0375 7.87838 2.6668 7.87838Z"
            fill="#57BEEA" />
    </symbol>

    <symbol id="ION-white" viewBox="0 0 220 220" fill="none" xmlns="http://www.w3.org/2000/svg">
        <g clip-path="url(#clip0_4085_48165)">
            <path opacity="0.2"
                d="M110 220C170.751 220 220 170.751 220 110C220 49.2487 170.751 0 110 0C49.2487 0 0 49.2487 0 110C0 170.751 49.2487 220 110 220Z"
                fill="white" />
            <path
                d="M48.3038 130.687C45.6872 130.992 43.0357 130.739 40.524 129.945C38.0122 129.151 35.6973 127.833 33.7317 126.079C31.7661 124.326 30.1945 122.175 29.1203 119.77C28.0462 117.364 27.494 114.759 27.5 112.124C27.4889 107.208 29.4201 102.486 32.8734 98.9862C36.3267 95.4865 41.0225 93.4925 45.9388 93.4381C52.5388 63.1194 79.4201 40.425 111.568 40.425C117.569 40.425 123.393 41.2156 128.927 42.6938C130.619 40.136 132.919 38.0375 135.621 36.5858C138.323 35.1342 141.342 34.3746 144.409 34.375C149.353 34.3877 154.09 36.3634 157.577 39.8676C161.064 43.3717 163.017 48.1175 163.006 53.0612C163.006 56.2856 162.195 59.3175 160.765 61.9575C172.354 74.4562 178.779 90.8794 178.75 107.924C178.766 116.851 177.009 125.693 173.582 133.936C170.155 142.18 165.125 149.661 158.785 155.946C161.026 159.026 162.346 162.827 162.346 166.939C162.352 169.387 161.875 171.813 160.943 174.077C160.011 176.341 158.642 178.4 156.914 180.135C155.187 181.87 153.135 183.248 150.875 184.19C148.615 185.132 146.191 185.62 143.743 185.625C139.999 185.621 136.343 184.487 133.254 182.373C130.164 180.258 127.784 177.261 126.424 173.772C121.551 174.874 116.57 175.427 111.574 175.423C82.4176 175.423 57.5988 156.764 48.3038 130.687ZM51.6725 129.965C60.61 154.495 84.0538 172.006 111.568 172.006C116.346 172.006 121 171.476 125.476 170.479C124.947 167.781 125.023 164.999 125.696 162.333C126.369 159.667 127.623 157.183 129.369 155.059C131.115 152.935 133.309 151.223 135.794 150.046C138.279 148.87 140.993 148.257 143.743 148.252C148.693 148.252 153.203 150.198 156.53 153.368C162.507 147.407 167.246 140.323 170.476 132.524C173.705 124.725 175.361 116.365 175.347 107.924C175.347 91.355 169.091 76.2575 158.813 64.8862C155.403 69.08 150.219 71.7544 144.409 71.7544C141.96 71.749 139.536 71.2611 137.276 70.3187C135.015 69.3762 132.963 67.9977 131.235 66.2618C129.507 64.5259 128.139 62.4666 127.207 60.2016C126.276 57.9367 125.799 55.5103 125.806 53.0612C125.806 50.49 126.328 48.0356 127.263 45.8013C122.133 44.5 116.86 43.8441 111.568 43.8487C81.2076 43.8487 55.7976 65.1681 49.3694 93.7269C53.6766 94.5089 57.5719 96.7799 60.3744 100.143C63.1769 103.506 64.7082 107.747 64.7007 112.124C64.7069 116.098 63.4465 119.969 61.1025 123.178C58.7585 126.386 55.4529 128.763 51.6657 129.965H51.6725ZM111.568 126.637C109.116 126.631 106.69 126.142 104.428 125.198C102.166 124.254 100.112 122.874 98.383 121.136C96.6542 119.399 95.2846 117.337 94.3525 115.07C93.4203 112.803 92.9437 110.375 92.9501 107.924C92.9501 97.5906 101.283 89.2169 111.568 89.2169C121.853 89.2169 130.192 97.5906 130.192 107.924C130.198 110.376 129.721 112.805 128.789 115.072C127.856 117.34 126.486 119.401 124.757 121.139C123.027 122.877 120.972 124.257 118.709 125.2C116.446 126.144 114.019 126.632 111.568 126.637Z"
                fill="white" />
        </g>
        <defs>
            <clipPath id="clip0_4085_48165">
                <rect width="220" height="220" fill="white" />
            </clipPath>
        </defs>
    </symbol>

    <!-- BTC -->
    <symbol id="BTC-base" viewBox="0 0 220 220" fill="none"
        xmlns="http://www.w3.org/2000/svg">
        <g clip-path="url(#clip0_4085_47453)">
            <path
                d="M220 110C220 131.756 213.549 153.023 201.462 171.113C189.375 189.202 172.195 203.301 152.095 211.627C131.995 219.952 109.878 222.131 88.5401 217.886C67.2022 213.642 47.6021 203.166 32.2183 187.782C16.8345 172.398 6.35804 152.798 2.11367 131.46C-2.13071 110.122 0.0476608 88.0047 8.3733 67.9048C16.6989 47.805 30.7979 30.6253 48.8873 18.5383C66.9767 6.45139 88.2441 0 110 0C139.174 0 167.153 11.5893 187.782 32.2183C208.411 52.8473 220 80.8262 220 110Z"
                fill="#F7931A" />
            <path fill-rule="evenodd" clip-rule="evenodd"
                d="M78.1806 50.2299L103.461 56.9999L109.111 35.9399L121.751 39.3699L116.321 59.5599L126.631 62.3299L132.071 41.9199L144.931 45.3599L139.391 65.8799C139.391 65.8799 160.391 70.5299 165.331 87.6099C170.271 104.69 154.471 113.66 149.591 114C149.591 114 167.991 124.09 161.671 143.94C155.351 163.79 135.951 167.34 115.541 162.79L110.001 184.07L97.1406 180.63L102.791 159.68L92.5906 156.9L86.9406 178L74.1806 174.57L79.8406 153.57L53.8906 146.57L60.4306 132.05C60.4306 132.05 67.7506 134.05 70.5206 134.71C73.2906 135.37 75.0706 132.49 75.8506 129.61C76.6306 126.73 88.3806 78.9999 89.4906 75.0699C90.6006 71.1399 90.1506 68.0699 85.4906 66.8599C80.8306 65.6499 74.4906 63.7599 74.4906 63.7599L78.1806 50.2299ZM103.681 113.44L96.6806 141.27C96.6806 141.27 131.391 153.8 135.831 136.17C140.271 118.54 103.681 113.44 103.681 113.44ZM106.901 100.24L113.771 74.7399C113.771 74.7399 143.491 80.0599 139.831 94.2499C136.171 108.44 118.651 103 106.901 100.24Z"
                fill="white" />
        </g>
        <defs>
            <clipPath id="clip0_4085_47453">
                <rect width="220" height="220" fill="white" />
            </clipPath>
        </defs>
    </symbol>

    <symbol id='BTC-colored' viewBox="0 0 64 64" fill="none"
        xmlns="http://www.w3.org/2000/svg">
        <path opacity="0.2"
            d="M32 64C49.6731 64 64 49.6731 64 32C64 14.3269 49.6731 0 32 0C14.3269 0 0 14.3269 0 32C0 49.6731 14.3269 64 32 64Z"
            fill="white" />
        <path fill-rule="evenodd" clip-rule="evenodd"
            d="M43.1186 29.27C42.1949 28.5096 40.9922 28.1289 39.5108 28.1284C41.051 26.7401 41.4314 24.9407 40.6525 22.7299C40.3762 21.9266 39.9814 21.2692 39.4673 20.7567C38.9529 20.2442 38.3409 19.8816 37.6292 19.6693C36.918 19.4565 36.1743 19.3448 35.3995 19.3332C34.6246 19.3216 33.7552 19.3897 32.7919 19.5375L31.6195 14.8352L28.8666 15.5216L30.0064 20.0932C29.5297 20.2121 28.8058 20.4058 27.8348 20.6743L26.6857 16.0653L23.9324 16.7518L25.1048 21.4541C24.7144 21.5647 24.1381 21.7151 23.3753 21.9053L19.5806 22.8314L20.3436 25.8917L22.3279 25.397C23.2338 25.1711 23.8696 25.4619 24.2354 26.2691L25.5707 31.6245C25.69 31.5948 25.7869 31.5774 25.8615 31.572L25.5754 31.6434L27.4455 39.1443C27.5084 39.8023 27.242 40.2059 26.646 40.3545L24.6618 40.8492L24.959 44.4023L28.5346 43.5108C28.7611 43.4543 29.0894 43.3758 29.52 43.2743C29.9506 43.1737 30.273 43.0966 30.4876 43.0431L31.674 47.8013L34.4277 47.1147L33.2553 42.4125C33.7589 42.3004 34.4875 42.1252 35.4409 41.8875L36.6086 46.5709L39.3616 45.8845L38.1753 41.1263C39.1404 40.833 39.9843 40.524 40.7066 40.198C41.4292 39.872 42.1 39.4772 42.7182 39.0124C43.3364 38.5479 43.8236 38.0397 44.1798 37.4884C44.5363 36.9375 44.7822 36.2879 44.9192 35.5401C45.0551 34.7926 45.0552 33.9668 44.9181 33.0626C44.6427 31.2951 44.0425 30.0308 43.1186 29.27ZM28.7257 24.0207L28.7259 24.0207L30.1541 29.7491C30.2139 29.7342 30.42 29.6863 30.7733 29.6047C31.1266 29.5232 31.4036 29.4541 31.6048 29.3974C31.8057 29.3408 32.1006 29.2538 32.4894 29.1372C32.8782 29.0205 33.1973 28.9045 33.4471 28.7893C33.6968 28.6743 33.9866 28.5294 34.3163 28.3546C34.6461 28.18 34.9067 27.9927 35.0973 27.7934C35.2881 27.594 35.4671 27.3708 35.6334 27.1245C35.7996 26.8783 35.9012 26.5985 35.9368 26.2858C35.9726 25.9728 35.947 25.6421 35.8601 25.2938C35.7578 24.8834 35.5926 24.5381 35.3643 24.2581C35.1365 23.9779 34.8896 23.7619 34.6238 23.6102C34.3583 23.4584 34.029 23.3554 33.6355 23.3017C33.2426 23.2477 32.889 23.2268 32.5756 23.239C32.2623 23.2512 31.8834 23.2927 31.4391 23.3638C30.9946 23.435 30.645 23.5057 30.3903 23.5757C30.1356 23.6459 29.8155 23.7322 29.4295 23.8352C29.044 23.938 28.8095 23.9998 28.7259 24.0207L28.7258 24.0206L28.7257 24.0207L28.7257 24.0207ZM39.1598 35.7086C39.2857 35.4524 39.3694 35.1671 39.4115 34.8526C39.4535 34.538 39.4311 34.2072 39.3442 33.8585C39.2325 33.4105 39.0439 33.0346 38.778 32.7311C38.5124 32.4272 38.2208 32.1965 37.9026 32.0376C37.5845 31.8791 37.1944 31.7749 36.7326 31.7249C36.2704 31.6748 35.8517 31.6572 35.4756 31.6715C35.0992 31.6861 34.6442 31.7403 34.1109 31.8339C33.5769 31.9271 33.161 32.0113 32.8631 32.0856C32.5651 32.1599 32.1824 32.2615 31.7145 32.3915C31.2468 32.5216 30.9652 32.5982 30.87 32.622L32.4426 38.9292C32.538 38.9054 32.7591 38.8536 33.1064 38.7732C33.4535 38.6931 33.7405 38.6252 33.967 38.5687C34.1933 38.5123 34.507 38.424 34.9075 38.3047C35.3082 38.1848 35.6505 38.0732 35.9346 37.9692C36.2191 37.865 36.5454 37.7279 36.9147 37.5564C37.283 37.3851 37.5922 37.216 37.8416 37.0477C38.0907 36.8798 38.3415 36.6788 38.5929 36.4441C38.8445 36.2098 39.0334 35.9643 39.1598 35.7086Z"
            fill="#FFC107" />
        <path fill-rule="evenodd" clip-rule="evenodd"
            d="M32.0008 59.0779C46.9549 59.0779 59.0777 46.9552 59.0777 32.001C59.0777 17.0468 46.9549 4.92407 32.0008 4.92407C17.0466 4.92407 4.92383 17.0468 4.92383 32.001C4.92383 46.9552 17.0466 59.0779 32.0008 59.0779Z"
            stroke="white" stroke-width="0.70325" />
    </symbol>

    <!-- DCT -->
    <symbol id='DCT-white' viewBox="0 0 64 64" fill="none"
        xmlns="http://www.w3.org/2000/svg">
        <path opacity="0.2"
            d="M32 64C49.6731 64 64 49.6731 64 32C64 14.3269 49.6731 0 32 0C14.3269 0 0 14.3269 0 32C0 49.6731 14.3269 64 32 64Z"
            fill="white" />
        <path fill-rule="evenodd" clip-rule="evenodd"
            d="M40.267 26.2874C40.9175 26.6126 40.9175 27.5408 40.267 27.8661L18.5075 38.7458C17.9207 39.0392 17.2303 38.6125 17.2303 37.9565L17.2303 16.197C17.2303 15.5409 17.9207 15.1142 18.5075 15.4076L40.267 26.2874Z"
            fill="white" />
        <path fill-rule="evenodd" clip-rule="evenodd"
            d="M31.1177 37.7132C30.4673 37.388 30.4673 36.4598 31.1177 36.1345L47.9542 27.7163C48.541 27.4229 49.2314 27.8496 49.2314 28.5056V45.3421C49.2314 45.9981 48.541 46.4248 47.9542 46.1314L31.1177 37.7132Z"
            fill="white" />
    </symbol>

    <!-- TMC -->
    <symbol id='TMC-white' viewBox="0 0 64 64" fill="none" xmlns="http://www.w3.org/2000/svg">
        <path opacity="0.2"
            d="M32 64C49.6731 64 64 49.6731 64 32C64 14.3269 49.6731 0 32 0C14.3269 0 0 14.3269 0 32C0 49.6731 14.3269 64 32 64Z"
            fill="white" />
        <path
            d="M23.3986 17.2471C26.8295 17.3277 30.2665 19.1314 31.9394 22.1644C34.6212 17.36 41.5622 15.8021 46.2051 18.6578C50.6836 21.314 52.736 27.2913 50.9008 32.126C49.8025 35.0704 47.8556 37.6137 45.7179 39.893C41.5277 44.2158 36.7772 47.9622 31.9373 51.5394C29.5986 49.7861 27.2335 48.061 25.0207 46.1484C21.7948 43.4621 18.5831 40.6971 16.0008 37.3739C14.2934 35.147 12.8053 32.6238 12.3993 29.8104C11.9628 26.4227 13.118 22.8516 15.5095 20.3849C17.5295 18.2809 20.4732 17.1141 23.3986 17.2471Z"
            fill="white" fill-opacity="0.52" />
        <path
            d="M20.0234 33.7533H25.5819L27.0549 37.1652C27.0718 37.2042 27.1282 37.2009 27.1403 37.1601L28.9925 30.9487C29.0051 30.9063 29.0648 30.9051 29.0791 30.947L32.1278 39.8863C32.1426 39.9298 32.2052 39.9264 32.2153 39.8816L35.6386 24.6515C35.6488 24.6061 35.7125 24.6035 35.7264 24.6479L38.5648 33.7214C38.5708 33.7404 38.5884 33.7533 38.6082 33.7533H43.6664"
            stroke="white" stroke-width="0.275784" />
        <path fill-rule="evenodd" clip-rule="evenodd"
            d="M43.7766 35.1659C44.5614 35.1659 45.1977 34.5343 45.1977 33.7552C45.1977 32.9761 44.5614 32.3445 43.7766 32.3445C42.9917 32.3445 42.3555 32.9761 42.3555 33.7552C42.3555 34.5343 42.9917 35.1659 43.7766 35.1659Z"
            fill="white" />
    </symbol>

    <!-- QTUM -->
    <symbol id='QTUM-white' viewBox="0 0 64 64" fill="none" xmlns="http://www.w3.org/2000/svg">
        <path opacity="0.1"
            d="M32 64C49.6731 64 64 49.6731 64 32C64 14.3269 49.6731 0 32 0C14.3269 0 0 14.3269 0 32C0 49.6731 14.3269 64 32 64Z"
            fill="white" />
        <mask id="mask0_3761_26022" style="mask-type:luminance" maskUnits="userSpaceOnUse" x="0"
            y="0"
            width="64" height="64">
            <path
                d="M32 64C49.6731 64 64 49.6731 64 32C64 14.3269 49.6731 0 32 0C14.3269 0 0 14.3269 0 32C0 49.6731 14.3269 64 32 64Z"
                fill="white" />
        </mask>
        <g mask="url(#mask0_3761_26022)">
            <path fill-rule="evenodd" clip-rule="evenodd"
                d="M26.923 47.2352H36.3968L43.9345 41.5885L44.041 41.4791L46.9483 32.1817L44.041 22.8843L36.3968 17.1282H26.9167L19.2725 22.8843L16.3652 32.1817L19.2788 41.4791L26.923 47.2352ZM36.1839 46.5668H27.1362L19.8178 41.036L17.017 32.1829L19.8178 23.3297L27.1362 17.799H36.1839L43.5085 23.3297L46.3093 32.1829L43.5085 41.036L36.1839 46.5668Z"
                fill="#E0E0E0" />
            <path fill-rule="evenodd" clip-rule="evenodd"
                d="M48.0317 45.6838L43.6144 41.5888L39.3035 39.9277L31.6593 40.9257L23.9086 39.9277L19.5978 41.5888L19.3848 40.9257L23.7958 39.155H23.9086L31.6593 40.2625L39.4163 39.155L39.5228 39.2645L44.0467 41.0351L48.4578 45.2395L48.0317 45.6838Z"
                fill="#E0E0E0" />
            <path fill-rule="evenodd" clip-rule="evenodd"
                d="M36.1835 47.5634L31.6596 41.1441L26.9227 47.5634L23.4766 39.7083L24.1219 39.3735L27.1358 46.237L31.6596 39.9272L36.077 46.237L39.0908 39.3735L43.1823 30.9646L44.1535 41.2535H43.5081L42.75 33.3984L39.7361 39.7083L36.1835 47.5634Z"
                fill="#E0E0E0" />
            <path fill-rule="evenodd" clip-rule="evenodd"
                d="M16.7969 31.8472H46.7346V32.5103H16.7969V31.8472Z" fill="#E0E0E0" />
            <path fill-rule="evenodd" clip-rule="evenodd"
                d="M43.1826 33.3986L39.4169 25.7623L36.1837 32.9543L31.6599 24.6549L27.0295 32.9543L23.7964 25.7623L20.0307 33.3986L19.166 23.2191L19.8177 23.1096L20.463 31.0742L23.7964 24.3265L27.0295 31.5185L31.6599 23.3285L36.0772 31.5185L39.4169 24.3265L42.7502 30.9647L43.2891 23.1096H43.9407L43.1826 33.3986Z"
                fill="#E0E0E0" />
            <path fill-rule="evenodd" clip-rule="evenodd"
                d="M36.0771 18.2368L39.0909 25.2098L39.7363 24.8814L36.1836 16.9104L31.6598 23.4392L26.9229 16.9104L23.5832 24.8814L24.1221 25.2098L27.1359 18.2368L31.6598 24.6561L36.0771 18.2368ZM42.7502 33.3989L43.5084 41.254H44.1538L43.1826 30.9651L39.4169 38.8202L36.1838 31.5188L31.6599 39.8182L27.0295 31.5188L23.7964 38.7108L20.0307 30.9651L19.166 41.254H19.8177L20.463 33.3989L23.7964 40.2625L27.0295 32.9546L31.6599 41.254L36.0772 32.9546L39.4169 40.2625L42.7502 33.3989Z"
                fill="#E0E0E0" />
            <path fill-rule="evenodd" clip-rule="evenodd"
                d="M39.4163 25.4348L31.5528 24.3273L23.7958 25.4348L19.3848 23.4388L19.5978 22.7756L23.9086 24.6557L31.5528 23.6642L39.4163 24.6557L43.6144 22.7756L43.9402 23.4388L39.4163 25.4348Z"
                fill="#E0E0E0" />
            <path fill-rule="evenodd" clip-rule="evenodd"
                d="M27.031 48.2262C27.7438 48.2262 28.3217 47.6324 28.3217 46.8998C28.3217 46.1673 27.7438 45.5735 27.031 45.5735C26.3181 45.5735 25.7402 46.1673 25.7402 46.8998C25.7402 47.6324 26.3181 48.2262 27.031 48.2262Z"
                fill="#E0E0E0" />
            <path fill-rule="evenodd" clip-rule="evenodd"
                d="M36.0779 48.2262C36.7907 48.2262 37.3686 47.6324 37.3686 46.8998C37.3686 46.1673 36.7907 45.5735 36.0779 45.5735C35.365 45.5735 34.7871 46.1673 34.7871 46.8998C34.7871 47.6324 35.365 48.2262 36.0779 48.2262Z"
                fill="#E0E0E0" />
            <path fill-rule="evenodd" clip-rule="evenodd"
                d="M27.031 18.8978C27.7438 18.8978 28.3217 18.304 28.3217 17.5715C28.3217 16.8389 27.7438 16.2451 27.031 16.2451C26.3181 16.2451 25.7402 16.8389 25.7402 17.5715C25.7402 18.304 26.3181 18.8978 27.031 18.8978Z"
                fill="#E0E0E0" />
            <path fill-rule="evenodd" clip-rule="evenodd"
                d="M36.0779 18.8978C36.7907 18.8978 37.3686 18.304 37.3686 17.5715C37.3686 16.8389 36.7907 16.2451 36.0779 16.2451C35.365 16.2451 34.7871 16.8389 34.7871 17.5715C34.7871 18.304 35.365 18.8978 36.0779 18.8978Z"
                fill="#E0E0E0" />
            <path fill-rule="evenodd" clip-rule="evenodd"
                d="M43.615 24.4357C44.3278 24.4357 44.9057 23.8418 44.9057 23.1093C44.9057 22.3768 44.3278 21.783 43.615 21.783C42.9021 21.783 42.3242 22.3768 42.3242 23.1093C42.3242 23.8418 42.9021 24.4357 43.615 24.4357Z"
                fill="#E0E0E0" />
            <path fill-rule="evenodd" clip-rule="evenodd"
                d="M19.4919 24.4357C20.2048 24.4357 20.7827 23.8418 20.7827 23.1093C20.7827 22.3768 20.2048 21.783 19.4919 21.783C18.7791 21.783 18.2012 22.3768 18.2012 23.1093C18.2012 23.8418 18.7791 24.4357 19.4919 24.4357Z"
                fill="#E0E0E0" />
            <path fill-rule="evenodd" clip-rule="evenodd"
                d="M19.4919 42.6947C20.2048 42.6947 20.7827 42.1009 20.7827 41.3684C20.7827 40.6358 20.2048 40.042 19.4919 40.042C18.7791 40.042 18.2012 40.6358 18.2012 41.3684C18.2012 42.1009 18.7791 42.6947 19.4919 42.6947Z"
                fill="#E0E0E0" />
            <path fill-rule="evenodd" clip-rule="evenodd"
                d="M16.7986 33.5072C17.5114 33.5072 18.0893 32.9134 18.0893 32.1809C18.0893 31.4483 17.5114 30.8545 16.7986 30.8545C16.0857 30.8545 15.5078 31.4483 15.5078 32.1809C15.5078 32.9134 16.0857 33.5072 16.7986 33.5072Z"
                fill="#E0E0E0" />
            <path fill-rule="evenodd" clip-rule="evenodd"
                d="M46.6286 33.5072C47.3415 33.5072 47.9194 32.9134 47.9194 32.1809C47.9194 31.4483 47.3415 30.8545 46.6286 30.8545C45.9158 30.8545 45.3379 31.4483 45.3379 32.1809C45.3379 32.9134 45.9158 33.5072 46.6286 33.5072Z"
                fill="#E0E0E0" />
            <path fill-rule="evenodd" clip-rule="evenodd"
                d="M42.9704 33.5072C43.6833 33.5072 44.2612 32.9134 44.2612 32.1809C44.2612 31.4483 43.6833 30.8545 42.9704 30.8545C42.2576 30.8545 41.6797 31.4483 41.6797 32.1809C41.6797 32.9134 42.2576 33.5072 42.9704 33.5072Z"
                fill="#E0E0E0" />
            <path fill-rule="evenodd" clip-rule="evenodd"
                d="M20.2439 33.5072C20.9567 33.5072 21.5346 32.9134 21.5346 32.1809C21.5346 31.4483 20.9567 30.8545 20.2439 30.8545C19.531 30.8545 18.9531 31.4483 18.9531 32.1809C18.9531 32.9134 19.531 33.5072 20.2439 33.5072Z"
                fill="#E0E0E0" />
            <path fill-rule="evenodd" clip-rule="evenodd"
                d="M27.031 33.5072C27.7438 33.5072 28.3217 32.9134 28.3217 32.1809C28.3217 31.4483 27.7438 30.8545 27.031 30.8545C26.3181 30.8545 25.7402 31.4483 25.7402 32.1809C25.7402 32.9134 26.3181 33.5072 27.031 33.5072Z"
                fill="#E0E0E0" />
            <path fill-rule="evenodd" clip-rule="evenodd"
                d="M36.0779 33.5072C36.7907 33.5072 37.3686 32.9134 37.3686 32.1809C37.3686 31.4483 36.7907 30.8545 36.0779 30.8545C35.365 30.8545 34.7871 31.4483 34.7871 32.1809C34.7871 32.9134 35.365 33.5072 36.0779 33.5072Z"
                fill="#E0E0E0" />
            <path fill-rule="evenodd" clip-rule="evenodd"
                d="M32.9352 24.2046C33.0494 23.4815 32.5716 22.8002 31.868 22.6829C31.1643 22.5655 30.5013 23.0565 30.3871 23.7796C30.2729 24.5027 30.7507 25.184 31.4544 25.3013C32.158 25.4187 32.821 24.9277 32.9352 24.2046Z"
                fill="#E0E0E0" />
            <path fill-rule="evenodd" clip-rule="evenodd"
                d="M23.7966 26.4249C24.5095 26.4249 25.0873 25.8311 25.0873 25.0986C25.0873 24.366 24.5095 23.7722 23.7966 23.7722C23.0837 23.7722 22.5059 24.366 22.5059 25.0986C22.5059 25.8311 23.0837 26.4249 23.7966 26.4249Z"
                fill="#E0E0E0" />
            <path fill-rule="evenodd" clip-rule="evenodd"
                d="M39.4177 26.4249C40.1306 26.4249 40.7084 25.8311 40.7084 25.0986C40.7084 24.366 40.1306 23.7722 39.4177 23.7722C38.7048 23.7722 38.127 24.366 38.127 25.0986C38.127 25.8311 38.7048 26.4249 39.4177 26.4249Z"
                fill="#E0E0E0" />
            <path fill-rule="evenodd" clip-rule="evenodd"
                d="M31.6599 41.9157C32.3727 41.9157 32.9506 41.3218 32.9506 40.5893C32.9506 39.8568 32.3727 39.2629 31.6599 39.2629C30.947 39.2629 30.3691 39.8568 30.3691 40.5893C30.3691 41.3218 30.947 41.9157 31.6599 41.9157Z"
                fill="#E0E0E0" />
            <path fill-rule="evenodd" clip-rule="evenodd"
                d="M23.7966 40.8087C24.5095 40.8087 25.0873 40.2149 25.0873 39.4824C25.0873 38.7498 24.5095 38.156 23.7966 38.156C23.0837 38.156 22.5059 38.7498 22.5059 39.4824C22.5059 40.2149 23.0837 40.8087 23.7966 40.8087Z"
                fill="#E0E0E0" />
            <path fill-rule="evenodd" clip-rule="evenodd"
                d="M39.4177 40.8087C40.1306 40.8087 40.7084 40.2149 40.7084 39.4824C40.7084 38.7498 40.1306 38.156 39.4177 38.156C38.7048 38.156 38.127 38.7498 38.127 39.4824C38.127 40.2149 38.7048 40.8087 39.4177 40.8087Z"
                fill="#E0E0E0" />
            <path fill-rule="evenodd" clip-rule="evenodd"
                d="M48.2465 47.2351C49.1981 47.2351 49.9696 46.4424 49.9696 45.4645C49.9696 44.4866 49.1981 43.6938 48.2465 43.6938C47.2949 43.6938 46.5234 44.4866 46.5234 45.4645C46.5234 46.4424 47.2949 47.2351 48.2465 47.2351Z"
                fill="#E0E0E0" />
        </g>
    </symbol>

    <!-- INS -->
    <symbol id="INS-white" viewBox="0 0 64 64" fill="none" xmlns="http://www.w3.org/2000/svg">
        <path opacity="0.2"
            d="M32 64C49.6731 64 64 49.6731 64 32C64 14.3269 49.6731 0 32 0C14.3269 0 0 14.3269 0 32C0 49.6731 14.3269 64 32 64Z"
            fill="white" />
        <path fill-rule="evenodd" clip-rule="evenodd"
            d="M12.4609 12.4658C12.9574 12.5352 13.4872 12.6045 13.8172 13.0316C15.2761 14.521 16.7239 16.0243 18.1911 17.5082C18.5739 17.8216 18.6654 18.3042 18.7403 18.7674C18.5156 18.7729 18.0719 18.7868 17.8472 18.7951C16.1803 17.1032 14.53 15.3919 12.8576 13.7028C12.4859 13.3977 12.5414 12.8902 12.4609 12.4658Z"
            fill="white" />
        <path fill-rule="evenodd" clip-rule="evenodd"
            d="M19.8164 12.541C20.1437 12.5438 20.4737 12.5604 20.801 12.5937C21.9382 14.0887 22.9311 15.689 24.0322 17.2117C24.3983 17.6582 24.5564 18.213 24.623 18.7788C24.3956 18.7788 23.9407 18.7815 23.7133 18.7815C22.6094 17.159 21.5 15.5392 20.3683 13.9361C20.0494 13.534 19.9218 13.0319 19.8164 12.541Z"
            fill="white" />
        <path fill-rule="evenodd" clip-rule="evenodd"
            d="M27.6699 12.5421C27.9195 12.5393 28.4188 12.5338 28.6656 12.531C29.1233 14.6361 29.8638 16.6969 30.0108 18.8547C29.7667 18.7965 29.2786 18.6772 29.0345 18.619C28.5491 16.6026 27.9722 14.5973 27.6699 12.5421Z"
            fill="white" />
        <path fill-rule="evenodd" clip-rule="evenodd"
            d="M12.5137 19.8691C13.0878 19.9413 13.6286 20.1687 14.0752 20.5403C15.4842 21.6276 16.9791 22.6066 18.377 23.7105C18.732 23.9407 18.5989 24.4206 18.6682 24.77C17.5727 24.77 16.821 23.9185 15.9862 23.3416C14.8268 22.5207 13.6897 21.6747 12.5386 20.8427C12.5331 20.6014 12.5192 20.1132 12.5137 19.8691Z"
            fill="white" />
        <path fill-rule="evenodd" clip-rule="evenodd"
            d="M21.125 21.0695C22.0985 20.9891 22.6477 21.835 23.2385 22.4508C23.8154 23.1248 24.6724 23.7183 24.6141 24.7112C24.4006 24.714 23.9735 24.7168 23.7599 24.7168C22.9334 23.771 21.9709 22.9362 21.2443 21.9099C21.2138 21.7019 21.1555 21.2803 21.125 21.0695Z"
            fill="white" />
        <path fill-rule="evenodd" clip-rule="evenodd"
            d="M27.7539 21.1426C27.9786 21.1371 28.4279 21.1315 28.6525 21.126C29.1573 22.2909 29.8812 23.3975 30.0005 24.69C29.6954 24.6983 29.3931 24.7039 29.088 24.7094C28.6026 23.539 27.8787 22.4323 27.7539 21.1426Z"
            fill="white" />
        <path fill-rule="evenodd" clip-rule="evenodd"
            d="M12.5354 27.4998C14.6156 27.7993 16.6126 28.4955 18.6539 28.9892C18.6484 29.2305 18.6428 29.7103 18.6373 29.9516C16.5405 29.6936 14.5324 28.9864 12.4883 28.4733C12.4994 28.2292 12.5243 27.7438 12.5354 27.4998Z"
            fill="white" />
        <path fill-rule="evenodd" clip-rule="evenodd"
            d="M21.1343 27.5046C22.3852 27.7043 23.4059 28.4948 24.5208 29.0329C24.5347 29.2686 24.5652 29.7401 24.5818 29.9759C23.2589 29.8649 22.2077 28.9968 21.0566 28.4338C21.0761 28.2008 21.1149 27.7376 21.1343 27.5046Z"
            fill="white" />
        <path fill-rule="evenodd" clip-rule="evenodd"
            d="M28.7656 28.6606C29.1761 28.669 29.5866 28.6773 29.9971 28.6773C29.9999 29.0795 30.0026 29.4788 30.0054 29.881C29.5949 29.8616 29.1872 29.881 28.7823 29.942C28.7878 29.5149 28.7823 29.0878 28.7656 28.6606Z"
            fill="white" />
        <path fill-rule="evenodd" clip-rule="evenodd"
            d="M33.9004 18.7742C34.1833 16.6524 34.8046 14.5916 35.2927 12.5115C35.5312 12.5198 36.0111 12.5392 36.2524 12.5503C35.9528 14.6665 35.3232 16.719 34.8573 18.8019C34.616 18.7936 34.1389 18.7797 33.9004 18.7742Z"
            fill="white" />
        <path fill-rule="evenodd" clip-rule="evenodd"
            d="M43.1396 12.5315C43.3809 12.537 43.8635 12.5454 44.1048 12.5481C44.0355 13.5466 43.306 14.2705 42.7902 15.0665C41.9193 16.2619 41.1427 17.5267 40.2329 18.6916C40.0083 18.7304 39.5617 18.8053 39.3398 18.8441C39.3981 18.3893 39.4064 17.8983 39.7115 17.5239C40.8431 15.8515 42.0163 14.2095 43.1396 12.5315Z"
            fill="white" />
        <path fill-rule="evenodd" clip-rule="evenodd"
            d="M50.2898 12.8523C50.5699 12.5001 51.0414 12.5362 51.4436 12.4585C51.4408 12.6887 51.4408 13.1463 51.4381 13.3765C49.6352 15.1489 47.8934 16.985 46.1184 18.785C45.9103 18.7878 45.4971 18.7933 45.2891 18.7933C45.2946 18.5798 45.3029 18.1499 45.3057 17.9363C46.9948 16.2694 48.6201 14.5387 50.2898 12.8523Z"
            fill="white" />
        <path fill-rule="evenodd" clip-rule="evenodd"
            d="M50.2455 20.271C50.5756 19.9687 51.0276 19.9548 51.4409 19.8633C51.4409 20.1074 51.4381 20.5955 51.4381 20.8396C49.8045 22.0156 48.1792 23.1971 46.5539 24.3786C46.2211 24.6532 45.7828 24.6921 45.3807 24.7947C45.3502 24.5756 45.2891 24.1401 45.2559 23.9238C46.9089 22.6895 48.5869 21.4941 50.2455 20.271Z"
            fill="white" />
        <path fill-rule="evenodd" clip-rule="evenodd"
            d="M33.9746 24.7015C34.0606 23.3979 34.815 22.2912 35.2976 21.1152C35.5139 21.1263 35.9438 21.1457 36.1574 21.1568C36.0797 22.4355 35.3226 23.5144 34.8566 24.6709C34.5626 24.682 34.2686 24.6904 33.9746 24.7015Z"
            fill="white" />
        <path fill-rule="evenodd" clip-rule="evenodd"
            d="M39.3555 23.9519C40.2097 22.9923 41.0917 22.0631 41.9626 21.1201C42.1762 21.1257 42.6061 21.1395 42.8197 21.1451C42.7531 21.5223 42.7864 21.955 42.4757 22.2379C41.7407 23.0727 40.9503 23.8549 40.2125 24.6897C40.0128 24.6952 39.6134 24.7091 39.4165 24.7174C39.3998 24.5261 39.3721 24.1433 39.3555 23.9519Z"
            fill="white" />
        <path fill-rule="evenodd" clip-rule="evenodd"
            d="M39.4802 29.0478C40.548 28.4653 41.5798 27.6721 42.8306 27.5583C42.8417 27.7775 42.8639 28.2129 42.8778 28.432C41.7157 28.9756 40.67 29.8992 39.3359 29.9492C39.372 29.7245 39.4441 29.2724 39.4802 29.0478Z"
            fill="white" />
        <path fill-rule="evenodd" clip-rule="evenodd"
            d="M45.2969 28.9814C47.3576 28.5154 49.3601 27.7471 51.4653 27.5142C51.4403 27.8525 51.4126 28.1909 51.3848 28.5293C49.3435 28.9425 47.3798 29.7247 45.2996 29.9466C45.2996 29.7053 45.2969 29.2227 45.2969 28.9814Z"
            fill="white" />
        <path fill-rule="evenodd" clip-rule="evenodd"
            d="M33.9531 28.6841C34.3581 28.6924 34.763 28.6952 35.1679 28.6952C35.1624 29.0946 35.1596 29.494 35.1596 29.8906C34.763 29.8906 34.3636 29.8934 33.9642 29.8989C33.9642 29.494 33.9614 29.089 33.9531 28.6841Z"
            fill="white" />
        <path fill-rule="evenodd" clip-rule="evenodd"
            d="M12.5039 35.5651C14.5397 35.0576 16.5422 34.3781 18.6252 34.0896C18.6335 34.3254 18.6474 34.7996 18.6529 35.0382C16.6116 35.5235 14.6201 36.253 12.5289 36.4943C12.5233 36.2613 12.5122 35.7953 12.5039 35.5651Z"
            fill="white" />
        <path fill-rule="evenodd" clip-rule="evenodd"
            d="M21.0762 35.6015C22.2133 35.0357 23.2645 34.2091 24.5653 34.0732C24.5598 34.2979 24.5514 34.7528 24.5459 34.9802C23.4087 35.5155 22.3797 36.3559 21.0984 36.5084C21.0928 36.281 21.0817 35.8289 21.0762 35.6015Z"
            fill="white" />
        <path fill-rule="evenodd" clip-rule="evenodd"
            d="M28.7852 34.1313C29.1845 34.1424 29.5839 34.1508 29.9833 34.1535C29.9806 34.5557 29.9806 34.9579 29.9833 35.3573C29.5839 35.36 29.1845 35.3628 28.7852 35.3711C28.7935 34.9579 28.7935 34.5446 28.7852 34.1313Z"
            fill="white" />
        <path fill-rule="evenodd" clip-rule="evenodd"
            d="M17.1126 39.8504C17.5425 39.4759 18.0861 39.3345 18.6352 39.2568C18.6352 39.5647 18.6325 39.8726 18.6297 40.1804C16.985 41.3287 15.3846 42.538 13.7621 43.714C13.4071 44.0024 12.955 44.0939 12.5195 44.191C12.5889 43.8221 12.3947 43.2924 12.7636 43.0511C14.1864 41.95 15.6814 40.9404 17.1126 39.8504Z"
            fill="white" />
        <path fill-rule="evenodd" clip-rule="evenodd"
            d="M22.5693 40.5976C23.1185 40.0457 23.5845 39.2607 24.4609 39.2607C24.4997 39.4577 24.5802 39.8515 24.619 40.0484C23.7564 41.0109 22.8772 41.9566 21.9924 42.8997C21.7733 42.8997 21.3351 42.9024 21.116 42.9024C21.0855 41.8845 21.9841 41.2965 22.5693 40.5976Z"
            fill="white" />
        <path fill-rule="evenodd" clip-rule="evenodd"
            d="M27.7559 42.8906C27.9472 41.6203 28.4992 40.4027 29.2092 39.346C29.4006 39.3432 29.7861 39.3404 29.9775 39.3376C29.8971 40.6357 29.1399 41.7368 28.66 42.9072C28.4326 42.9044 27.9805 42.8961 27.7559 42.8906Z"
            fill="white" />
        <path fill-rule="evenodd" clip-rule="evenodd"
            d="M17.5516 45.5513C17.8456 45.1879 18.3365 45.2628 18.747 45.2046C18.7803 46.228 17.8733 46.8133 17.2631 47.4928C15.9373 48.7853 14.7087 50.1804 13.3468 51.434C13.1277 51.4673 12.6867 51.5366 12.4648 51.5699C12.5453 51.1345 12.4815 50.6186 12.8753 50.3163C14.4396 48.7326 15.9679 47.1128 17.5516 45.5513Z"
            fill="white" />
        <path fill-rule="evenodd" clip-rule="evenodd"
            d="M23.7273 45.2449C23.952 45.2476 24.3985 45.2532 24.6232 45.256C24.5677 46.3127 23.8105 47.0976 23.2586 47.9352C22.421 49.089 21.686 50.3149 20.8179 51.4438C20.4795 51.4909 20.1411 51.5131 19.8027 51.5104C19.8887 50.5535 20.571 49.849 21.073 49.089C21.9606 47.8076 22.8426 46.5263 23.7273 45.2449Z"
            fill="white" />
        <path fill-rule="evenodd" clip-rule="evenodd"
            d="M29.0476 45.2738C29.3776 45.2821 29.7104 45.2682 30.0405 45.2322C29.7992 47.3651 29.1169 49.4175 28.687 51.5171C28.4346 51.5143 27.927 51.5032 27.6719 51.4977C27.9603 49.3898 28.626 47.3567 29.0476 45.2738Z"
            fill="white" />
        <path fill-rule="evenodd" clip-rule="evenodd"
            d="M33.9453 34.1394C34.353 34.145 34.7635 34.145 35.174 34.1394C35.1685 34.5471 35.1685 34.9548 35.1768 35.3653C34.7663 35.3598 34.3586 35.3598 33.9481 35.3653C33.9536 34.9548 33.9536 34.5471 33.9453 34.1394Z"
            fill="white" fill-opacity="0.32549" />
        <path fill-rule="evenodd" clip-rule="evenodd"
            d="M39.409 34.0449C40.6876 34.2252 41.736 35.024 42.8621 35.5926C42.8538 35.8228 42.8427 36.286 42.8371 36.5162C41.5641 36.3498 40.5351 35.5288 39.4062 34.9935C39.4062 34.755 39.409 34.2807 39.409 34.0449Z"
            fill="white" fill-opacity="0.32549" />
        <path fill-rule="evenodd" clip-rule="evenodd"
            d="M45.3096 34.0752C47.4092 34.3553 49.4256 35.0459 51.4725 35.5646C51.4614 35.8059 51.442 36.2857 51.4309 36.527C49.3424 36.2497 47.3371 35.5535 45.293 35.0543C45.2985 34.8102 45.3068 34.322 45.3096 34.0752Z"
            fill="white" fill-opacity="0.32549" />
        <path fill-rule="evenodd" clip-rule="evenodd"
            d="M33.959 39.3169C34.2585 39.3308 34.5553 39.3419 34.8548 39.3557C35.3485 40.5068 36.0558 41.6023 36.1834 42.8726C35.9587 42.8837 35.5094 42.9031 35.2847 42.9114C34.7938 41.7327 34.045 40.6232 33.959 39.3169Z"
            fill="white" fill-opacity="0.32549" />
        <path fill-rule="evenodd" clip-rule="evenodd"
            d="M45.3165 39.2563C45.8047 39.334 46.3067 39.4311 46.695 39.7584C48.1983 40.8678 49.7293 41.9384 51.2187 43.0672C51.5626 43.303 51.349 43.8161 51.399 44.1683C49.7875 43.8549 48.6947 42.457 47.3301 41.6388C46.5757 40.926 45.0475 40.5544 45.3165 39.2563Z"
            fill="white" fill-opacity="0.32549" />
        <path fill-rule="evenodd" clip-rule="evenodd"
            d="M39.3281 39.2917C39.7802 39.3722 40.3349 39.2917 40.5984 39.7577C41.3667 40.7784 42.7063 41.5106 42.8644 42.8696C42.6398 42.8807 42.196 42.9029 41.9713 42.9168C41.1476 42.0209 40.2628 41.1778 39.514 40.2209C39.4696 39.9879 39.3753 39.5247 39.3281 39.2917Z"
            fill="white" fill-opacity="0.32549" />
        <path fill-rule="evenodd" clip-rule="evenodd"
            d="M33.8926 45.2645C34.1311 45.2534 34.6109 45.234 34.8495 45.2229C35.3432 47.3086 35.97 49.3694 36.2557 51.4939C36.0088 51.5022 35.5151 51.5133 35.271 51.5189C34.8106 49.4359 34.1672 47.3863 33.8926 45.2645Z"
            fill="white" fill-opacity="0.32549" />
        <path fill-rule="evenodd" clip-rule="evenodd"
            d="M39.3145 45.2405C39.5502 45.2488 40.0189 45.2654 40.2519 45.2738C41.0285 46.4692 41.8578 47.6257 42.6649 48.8017C43.2252 49.6477 43.974 50.4298 44.1016 51.481C43.8576 51.4865 43.3722 51.4949 43.1281 51.5004C42.296 50.2606 41.4501 49.0347 40.6014 47.8088C40.0689 47.0072 39.3394 46.2584 39.3145 45.2405Z"
            fill="white" fill-opacity="0.32549" />
        <path fill-rule="evenodd" clip-rule="evenodd"
            d="M45.2344 45.2468C45.4563 45.2468 45.8945 45.2524 46.1164 45.2524C47.7639 46.9609 49.4446 48.6361 51.0894 50.3474C51.4333 50.6331 51.425 51.0963 51.5137 51.4957C51.2891 51.4957 50.8397 51.4957 50.6151 51.4957C48.9482 49.801 47.284 48.1008 45.6282 46.3923C45.2843 46.1066 45.312 45.6434 45.2344 45.2468Z"
            fill="white" fill-opacity="0.32549" />
    </symbol>

    <!-- ETH -->
    <symbol id='ETH-base' viewBox="0 0 220 220" fill="none"
        xmlns="http://www.w3.org/2000/svg">
        <g clip-path="url(#clip0_4085_47888)">
            <path fill-rule="evenodd" clip-rule="evenodd"
                d="M109.57 0C131.326 0 152.594 6.45139 170.683 18.5383C188.772 30.6253 202.871 47.805 211.197 67.9048C219.523 88.0047 221.701 110.122 217.457 131.46C213.212 152.798 202.736 172.398 187.352 187.782C171.968 203.166 152.368 213.642 131.03 217.886C109.692 222.131 87.575 219.952 67.4751 211.627C47.3753 203.301 30.1956 189.202 18.1087 171.113C6.0217 153.023 -0.429687 131.756 -0.429688 110C-0.429688 80.8262 11.1596 52.8473 31.7886 32.2183C52.4176 11.5893 80.3965 0 109.57 0V0Z"
                fill="white" />
            <path fill-rule="evenodd" clip-rule="evenodd"
                d="M109.569 23.6201L138.509 66.8601L167.449 110.11L109.569 139.27L51.6895 110L80.6295 66.7501L109.569 23.6201ZM109.569 150.92L54.8995 121.75L109.569 196.38L164.239 121.75L109.569 150.92Z"
                fill="#343434" />
            <path fill-rule="evenodd" clip-rule="evenodd"
                d="M109.57 23.6201L138.51 66.7501L167.45 110L109.57 88.1501V23.6201Z" fill="#343434" />
            <path fill-rule="evenodd" clip-rule="evenodd"
                d="M109.57 150.92L164.35 121.75L109.57 196.49V150.92Z" fill="#313131" />
            <path fill-rule="evenodd" clip-rule="evenodd"
                d="M109.57 88.1499L167.45 110L109.57 139.16V88.1499Z" fill="#151515" />
            <path fill-rule="evenodd" clip-rule="evenodd"
                d="M109.569 23.6201L80.6295 66.7501L51.6895 110L109.569 88.1501V23.6201Z"
                fill="#8C8C8C" />
            <path fill-rule="evenodd" clip-rule="evenodd"
                d="M109.57 150.92L54.9004 121.75L109.57 196.49V150.92Z" fill="#8A8A8A" />
            <path fill-rule="evenodd" clip-rule="evenodd"
                d="M109.569 88.1499L51.6895 110L109.569 139.16V88.1499Z" fill="#353535" />
        </g>
        <defs>
            <clipPath id="clip0_4085_47888">
                <rect width="220" height="220" fill="white" />
            </clipPath>
        </defs>
    </symbol>


    <symbol id="ETH-white" viewBox="0 0 64 64" fill="none" xmlns="http://www.w3.org/2000/svg">
        <path opacity="0.1"
            d="M32 64C49.6731 64 64 49.6731 64 32C64 14.3269 49.6731 0 32 0C14.3269 0 0 14.3269 0 32C0 49.6731 14.3269 64 32 64Z"
            fill="white" />
        <mask id="mask0_3761_26026" style="mask-type:luminance" maskUnits="userSpaceOnUse" x="0"
            y="0" width="64" height="64">
            <path
                d="M32 64C49.6731 64 64 49.6731 64 32C64 14.3269 49.6731 0 32 0C14.3269 0 0 14.3269 0 32C0 49.6731 14.3269 64 32 64Z"
                fill="white" />
        </mask>
        <g mask="url(#mask0_3761_26026)">
            <path fill-rule="evenodd" clip-rule="evenodd"
                d="M24.6153 30.3413L33.2661 24.718L41.8461 30.3762L33.2284 14.7695L24.6153 30.3413ZM24.9452 31.9649L33.2754 26.4755L41.4971 31.9242L33.2801 37.4194L24.9452 31.9649ZM24.6152 33.5375C27.6512 35.5284 30.8193 37.6124 33.266 39.2248L41.846 33.5375C38.7393 39.2365 36.1511 43.9808 33.266 49.2315L31.4973 46.0255L31.4967 46.0244C29.1199 41.7163 26.6688 37.2736 24.6152 33.5375Z"
                fill="url(#paint0_linear_3761_26026)" />
            <path fill-rule="evenodd" clip-rule="evenodd"
                d="M33.2305 14.7693L33.2628 24.7177L41.8459 30.3759L33.2305 14.7693ZM33.2714 26.4753L41.5474 31.9239L33.2754 37.4191L33.2714 26.4753ZM33.2635 39.2246L41.8466 33.5373C39.1844 39.2362 33.2635 49.2313 33.2635 49.2313V39.2246Z"
                fill="url(#paint1_linear_3761_26026)" />
        </g>
        <defs>
            <linearGradient id="paint0_linear_3761_26026" x1="33.2307" y1="14.7695" x2="33.2307"
                y2="49.2315" gradientUnits="userSpaceOnUse">
                <stop stop-color="white" />
                <stop offset="1" stop-color="#999999" />
            </linearGradient>
            <linearGradient id="paint1_linear_3761_26026" x1="37.5385" y1="14.7693" x2="37.5385"
                y2="49.2313" gradientUnits="userSpaceOnUse">
                <stop stop-color="white" />
                <stop offset="1" stop-color="#999999" />
            </linearGradient>
        </defs>
    </symbol>

    <!-- QKC -->
    <symbol id="QKC-white" viewBox="0 0 64 64" fill="none" xmlns="http://www.w3.org/2000/svg">
        <path opacity="0.2"
            d="M32 64C49.6731 64 64 49.6731 64 32C64 14.3269 49.6731 0 32 0C14.3269 0 0 14.3269 0 32C0 49.6731 14.3269 64 32 64Z"
            fill="white" />
        <path fill-rule="evenodd" clip-rule="evenodd"
            d="M13.3848 16.2096C12.8687 16.1923 12.304 16.1734 11.9114 16.5534C11.4138 16.955 11.2906 17.6318 11.313 18.2366C11.3213 21.4356 11.3225 24.6346 11.3238 27.8334C11.3263 33.9718 11.3287 40.1097 11.3802 46.2462C11.3162 47.3214 12.4938 47.9662 13.449 47.8062C14.3444 47.8292 14.8563 47.0723 15.3079 46.4046C15.3599 46.3278 15.411 46.2521 15.4618 46.179C18.569 42.2094 21.6906 38.251 24.8122 34.2926C25.057 34.5598 25.3018 34.8302 25.5226 35.1198C26.5083 36.4 27.5058 37.6701 28.5035 38.9403L28.5036 38.9405L28.5043 38.9414L28.505 38.9423C29.1005 39.7004 29.696 40.4586 30.289 41.219C31.0474 42.3422 32.9322 42.331 33.7066 41.2286C34.4096 40.3185 35.1178 39.4118 35.8261 38.5049C36.7315 37.3456 37.6372 36.1861 38.5322 35.019C38.7146 34.7598 38.9466 34.5454 39.1898 34.3454C40.5248 36.0511 41.8677 37.7509 43.2106 39.4508C45.0094 41.7277 46.8083 44.0047 48.5882 46.2958C48.6603 46.3927 48.7306 46.4935 48.8015 46.5951L48.8015 46.5952L48.8016 46.5953C49.1241 47.0576 49.4574 47.5355 50.0122 47.723C50.7946 47.915 51.7546 47.8526 52.305 47.1886C52.6468 46.775 52.6359 46.2397 52.6254 45.7229V45.7228V45.7227C52.6223 45.5718 52.6192 45.4225 52.625 45.2782C52.649 43.8926 52.6698 42.507 52.6602 41.1198C52.6602 37.5042 52.6659 33.889 52.6716 30.2737V30.2737V30.2736C52.6779 26.2065 52.6843 22.1394 52.6826 18.0718C52.6842 17.523 52.5482 16.8958 52.0602 16.5726C51.4842 16.0958 50.6826 16.1662 49.9914 16.2638C49.4725 16.4533 49.1382 16.9019 48.816 17.3342L48.8158 17.3344L48.8157 17.3346C48.7516 17.4206 48.688 17.506 48.6234 17.5886C47.4323 19.1022 46.2465 20.62 45.0608 22.1376C43.5104 24.1223 41.96 26.1067 40.3978 28.0814C40.2781 28.229 40.1625 28.3806 40.0468 28.5323L40.0468 28.5324C39.7437 28.9299 39.4401 29.3281 39.0602 29.6558C38.4103 28.8354 37.7707 28.0067 37.1311 27.1781C36.3661 26.187 35.6012 25.1959 34.8186 24.219C34.6776 24.0414 34.542 23.8586 34.4063 23.6756L34.4063 23.6756L34.4062 23.6755C34.0433 23.1862 33.6799 22.6963 33.2106 22.3038C32.6762 21.8622 31.9178 21.9358 31.2794 22.035C30.5882 22.2953 30.1568 22.8921 29.7322 23.4794C29.572 23.7009 29.4128 23.9211 29.241 24.1214C28.6228 24.8782 28.0299 25.6556 27.4371 26.4329L27.4371 26.433C26.5922 27.5408 25.7475 28.6484 24.8298 29.6958C24.0716 28.7306 23.3124 27.7661 22.5532 26.8017C19.9561 23.5026 17.3593 20.2038 14.8026 16.8734C14.5002 16.523 14.0954 16.195 13.6058 16.2158C13.5336 16.2146 13.4597 16.2121 13.3848 16.2096ZM15.1405 41.1268C15.1453 35.098 15.1485 29.0692 15.1437 23.0404C15.1463 22.9891 15.1469 22.9362 15.1474 22.8828V22.8828C15.1498 22.6465 15.1523 22.3995 15.3389 22.226C15.796 22.6788 16.184 23.1898 16.5719 23.7008L16.5719 23.7008L16.5719 23.7008C16.7625 23.9518 16.953 24.2028 17.1517 24.4468C18.2294 25.8073 19.2991 27.1747 20.3686 28.5419L20.3687 28.542L20.3688 28.5421C21.2174 29.6269 22.0658 30.7115 22.9181 31.7924C23.1 32.0659 22.8896 32.3075 22.6967 32.5292C22.6299 32.6058 22.5653 32.6801 22.5197 32.7524C21.814 33.6571 21.1072 34.561 20.4005 35.4648L20.4003 35.465C19.2099 36.9874 18.0195 38.5096 16.8349 40.0356C16.738 40.159 16.6418 40.2829 16.5457 40.407L16.5455 40.4071L16.5453 40.4074C16.1538 40.9121 15.7621 41.4171 15.3229 41.882C15.1981 41.6484 15.1213 41.3924 15.1405 41.1268ZM41.8484 30.8074L41.848 30.808L41.0794 31.789C40.8846 32.0308 41.0767 32.2714 41.2399 32.476C41.2711 32.515 41.3012 32.5528 41.3274 32.589C41.8671 33.2216 42.3707 33.8829 42.8743 34.5442C43.2456 35.0318 43.6169 35.5193 44.0026 35.9954C44.6588 36.8033 45.2943 37.6282 45.9297 38.453L45.9299 38.4532C46.822 39.6112 47.7141 40.7692 48.6634 41.8802C48.8026 41.7058 48.8682 41.5074 48.8602 41.285C48.8494 36.1401 48.8512 30.9953 48.8529 25.8495V25.8444L48.8538 23.0386C48.8602 22.7522 48.8442 22.461 48.6666 22.221C48.107 22.7859 47.6282 23.4189 47.1494 24.0519C46.9123 24.3654 46.6752 24.6789 46.4282 24.9842C44.8944 26.9192 43.3712 28.8637 41.8484 30.8074ZM30.5339 26.9994C30.832 26.6069 31.1304 26.214 31.5034 25.8921C32.0506 25.5833 32.6426 25.9369 32.9546 26.4057C33.7353 27.4237 34.5329 28.4297 35.3304 29.4357C35.9253 30.1862 36.5203 30.9366 37.1082 31.6921C37.3946 31.9731 37.1375 32.2733 36.9266 32.5196C36.8865 32.5664 36.8481 32.6113 36.8154 32.6537C35.521 34.2953 34.2298 35.9417 32.9466 37.5913C32.915 37.6273 32.8832 37.6651 32.8509 37.7035C32.6282 37.9685 32.3811 38.2624 32.001 38.2121C31.5242 38.2729 31.2106 37.8729 30.953 37.5401C30.2937 36.6739 29.6202 35.8187 28.9466 34.9636C28.172 33.9801 27.3974 32.9965 26.6442 31.9961C27.2702 31.1251 27.9411 30.287 28.6122 29.4488C29.116 28.8195 29.6199 28.19 30.105 27.5465C30.2531 27.3692 30.3935 27.1843 30.5339 26.9994Z"
            fill="white" />
        <path opacity="0.2" fill-rule="evenodd" clip-rule="evenodd"
            d="M33.5008 0H30.3472C29.9117 0.0558486 29.4754 0.104238 29.0391 0.15263C28.4253 0.220693 27.8116 0.288762 27.2 0.3776C23.2048 0.9552 19.3648 2.3792 15.8576 4.3584C12.9312 6.0592 10.3456 8.2832 8.0432 10.7536C5.5792 13.6224 3.5312 16.8656 2.1712 20.4032C0.8656 23.7168 0.1792 27.256 0 30.8096V33.6608C0.2864 37.9408 1.3104 42.1904 3.224 46.0416C5.8736 51.528 10.1616 56.1952 15.3552 59.3696C19.952 62.1712 25.2656 63.7872 30.6464 64H33.3552C39.1984 63.7664 44.968 61.8864 49.8176 58.616C56.824 53.9376 61.8832 46.4016 63.4224 38.1056C63.4979 37.7355 63.5529 37.3614 63.6079 36.9874C63.703 36.3395 63.7981 35.6921 64 35.0672V30.1856C63.9681 29.9153 63.9378 29.6447 63.9076 29.374C63.8346 28.722 63.7617 28.0698 63.6656 27.4208C62.9152 22.0656 60.7472 16.912 57.4528 12.6256C53.1312 6.8176 46.6944 2.6752 39.6768 0.952C37.656 0.4272 35.576 0.1984 33.5008 0ZM11.3138 18.2367C11.2914 17.6319 11.4146 16.9551 11.9122 16.5535C12.3048 16.1735 12.8694 16.1924 13.3856 16.2097C13.4605 16.2122 13.5344 16.2147 13.6066 16.2159C14.0962 16.1951 14.501 16.5231 14.8034 16.8735C17.36 20.2039 19.9569 23.5027 22.5539 26.8017C23.3131 27.7662 24.0724 28.7306 24.8306 29.6959C25.7483 28.6485 26.593 27.5409 27.4378 26.4331C28.0307 25.6557 28.6236 24.8783 29.2418 24.1215C29.4136 23.9212 29.5728 23.701 29.733 23.4795C30.1576 22.8921 30.589 22.2953 31.2802 22.0351C31.9186 21.9359 32.677 21.8623 33.2114 22.3039C33.6807 22.6964 34.0441 23.1863 34.407 23.6756C34.5427 23.8586 34.6783 24.0414 34.8194 24.2191C35.602 25.196 36.3669 26.1871 37.1319 27.1782C37.7715 28.0069 38.4111 28.8355 39.061 29.6559C39.4409 29.3282 39.7444 28.93 40.0476 28.5324C40.1633 28.3807 40.2789 28.2291 40.3986 28.0815C41.9608 26.1067 43.5112 24.1222 45.0618 22.1375C46.2474 20.6199 47.4331 19.1022 48.6242 17.5887C48.6888 17.506 48.7526 17.4205 48.8168 17.3343C49.1389 16.902 49.4733 16.4534 49.9922 16.2639C50.6834 16.1663 51.485 16.0959 52.061 16.5727C52.549 16.8959 52.685 17.5231 52.6834 18.0719C52.6851 22.1395 52.6787 26.2066 52.6724 30.2738C52.6667 33.889 52.661 37.5043 52.661 41.1199C52.6706 42.5071 52.6498 43.8927 52.6258 45.2783C52.62 45.4226 52.6231 45.572 52.6262 45.723C52.6367 46.2398 52.6476 46.7751 52.3058 47.1887C51.7554 47.8527 50.7954 47.9151 50.013 47.7231C49.4582 47.5356 49.1249 47.0577 48.8024 46.5954C48.7315 46.4937 48.6611 46.3928 48.589 46.2959C46.809 44.0047 45.0102 41.7277 43.2113 39.4508C41.8685 37.751 40.5256 36.0512 39.1906 34.3455C38.9474 34.5455 38.7154 34.7599 38.533 35.0191C37.638 36.1862 36.7323 37.3457 35.8268 38.5051C35.1185 39.4119 34.4104 40.3186 33.7074 41.2287C32.933 42.3311 31.0482 42.3423 30.2898 41.2191C29.6964 40.4581 29.1004 39.6994 28.5046 38.9407C27.5068 37.6704 26.5091 36.4002 25.5234 35.1199C25.3026 34.8303 25.0578 34.5599 24.813 34.2927C21.6914 38.2511 18.5698 42.2095 15.4626 46.1791C15.4118 46.2522 15.3606 46.3279 15.3087 46.4047C14.8571 47.0724 14.3452 47.8293 13.4498 47.8063C12.4946 47.9663 11.317 47.3215 11.381 46.2463C11.3295 40.1098 11.327 33.9719 11.3246 27.8335C11.3233 24.6347 11.322 21.4357 11.3138 18.2367Z"
            fill="white" />
        <path opacity="0.2" fill-rule="evenodd" clip-rule="evenodd"
            d="M15.1448 23.0407C15.1592 22.7623 15.1112 22.4391 15.34 22.2263C16.0216 22.9015 16.5496 23.7063 17.1528 24.4471C19.0856 26.8871 20.9928 29.3495 22.9192 31.7927C23.164 32.1607 22.6984 32.4711 22.5208 32.7527C20.6264 35.1815 18.724 37.6039 16.836 40.0359C16.3448 40.6615 15.8712 41.3031 15.324 41.8823C15.1992 41.6487 15.1224 41.3927 15.1416 41.1271C15.1464 35.0983 15.1496 29.0695 15.1448 23.0407Z"
            fill="white" />
        <path opacity="0.2" fill-rule="evenodd" clip-rule="evenodd"
            d="M46.4289 24.9844C47.1745 24.0628 47.8305 23.066 48.6673 22.2212C48.8449 22.4612 48.8609 22.7524 48.8545 23.0388C48.8529 29.122 48.8481 35.2036 48.8609 41.2852C48.8689 41.5076 48.8033 41.706 48.6641 41.8804C47.0385 39.978 45.5809 37.938 44.0033 35.9956C43.0945 34.874 42.2657 33.6884 41.3281 32.5892C41.1649 32.3636 40.8481 32.0772 41.0801 31.7892C42.8593 29.5188 44.6369 27.2452 46.4289 24.9844Z"
            fill="white" />
        <path opacity="0.2" fill-rule="evenodd" clip-rule="evenodd"
            d="M31.5037 25.8911C32.0509 25.5823 32.6429 25.9359 32.9549 26.4047C34.3181 28.1823 35.7325 29.9231 37.1085 31.6911C37.4493 32.0255 37.0205 32.3871 36.8157 32.6527C35.5213 34.2943 34.2301 35.9407 32.9469 37.5903C32.6973 37.8751 32.4365 38.2687 32.0013 38.2111C31.5245 38.2719 31.2109 37.8719 30.9533 37.5391C29.5357 35.6767 28.0525 33.8655 26.6445 31.9951C27.7405 30.4703 28.9741 29.0463 30.1053 27.5455C30.5677 26.9919 30.9549 26.3647 31.5037 25.8911Z"
            fill="white" />
    </symbol>

    <!-- AERON -->
    <symbol id="AERON-white" viewBox="0 0 64 64" fill="none" xmlns="http://www.w3.org/2000/svg">
        <path
            d="M32 64C49.6731 64 64 49.6731 64 32C64 14.3269 49.6731 0 32 0C14.3269 0 0 14.3269 0 32C0 49.6731 14.3269 64 32 64Z"
            fill="white" fill-opacity="0.36" />
        <mask id="mask0_3761_26030" style="mask-type:luminance" maskUnits="userSpaceOnUse" x="0"
            y="0" width="64" height="64">
            <path
                d="M32 64C49.6731 64 64 49.6731 64 32C64 14.3269 49.6731 0 32 0C14.3269 0 0 14.3269 0 32C0 49.6731 14.3269 64 32 64Z"
                fill="white" />
        </mask>
        <g mask="url(#mask0_3761_26030)">
            <path fill-rule="evenodd" clip-rule="evenodd"
                d="M18.2994 20.3769C22.2388 18.2761 27.213 17.2272 33.2218 17.2302C39.2286 17.2302 44.2028 18.2791 48.1443 20.3769C48.837 20.7459 49.2445 21.4486 49.1955 22.1898L48.4027 34.13C48.0647 39.1981 45.1609 43.8162 40.5778 46.5744L34.3652 50.3159C33.6694 50.7349 32.7739 50.7349 32.078 50.3159L25.8657 46.5746C21.2825 43.8163 18.3788 39.1981 18.041 34.13L17.2481 22.1898C17.1991 21.4486 17.6066 20.7459 18.2994 20.3769Z"
                stroke="white" stroke-width="0.25457" />
            <path
                d="M18.4707 20.3838L32.5948 44.1111C32.7324 44.3421 32.9942 44.4851 33.2781 44.4844C33.562 44.4837 33.823 44.3395 33.9593 44.1078L47.9742 20.2671"
                stroke="white" stroke-width="0.25457" />
            <path
                d="M19.5605 39.906L32.9554 17.6692C33.0386 17.5311 33.1959 17.446 33.3661 17.447C33.5362 17.4481 33.6924 17.5351 33.7736 17.6741L46.8064 40.004"
                stroke="white" stroke-width="0.25457" />
            <path
                d="M41.2309 32.8858C42.1545 32.8858 42.9032 32.1364 42.9032 31.2119C42.9032 30.2875 42.1545 29.5381 41.2309 29.5381C40.3073 29.5381 39.5586 30.2875 39.5586 31.2119C39.5586 32.1364 40.3073 32.8858 41.2309 32.8858Z"
                fill="white" />
            <path
                d="M33.2309 46.4236C34.1545 46.4236 34.9032 45.6742 34.9032 44.7498C34.9032 43.8253 34.1545 43.0759 33.2309 43.0759C32.3073 43.0759 31.5586 43.8253 31.5586 44.7498C31.5586 45.6742 32.3073 46.4236 33.2309 46.4236Z"
                fill="white" />
            <path
                d="M24.6156 32.8863C25.5392 32.8863 26.2879 32.1369 26.2879 31.2124C26.2879 30.288 25.5392 29.5386 24.6156 29.5386C23.6921 29.5386 22.9434 30.288 22.9434 31.2124C22.9434 32.1369 23.6921 32.8863 24.6156 32.8863Z"
                fill="white" />
            <path d="M33.231 45.2292V49.5369" stroke="white" stroke-width="0.25457"
                stroke-linecap="square" />
            <path
                d="M19.5176 39.8455C20.6687 40.1002 26.8537 43.8434 33.8106 45.4307L46.9462 39.8455"
                stroke="white" stroke-width="0.25457" />
        </g>
    </symbol>

    <!-- USDT -->
    <symbol id='USDT-base' viewBox="0 0 220 220" fill="none"
        xmlns="http://www.w3.org/2000/svg">
        <g clip-path="url(#clip0_4085_49125)">
            <path
                d="M110 220C170.751 220 220 170.751 220 110C220 49.2487 170.751 0 110 0C49.2487 0 0 49.2487 0 110C0 170.751 49.2487 220 110 220Z"
                fill="#26A17B" />
            <path fill-rule="evenodd" clip-rule="evenodd"
                d="M123.214 119.51V119.496C122.458 119.551 118.559 119.785 109.862 119.785C102.919 119.785 98.0306 119.579 96.3119 119.496V119.517C69.5819 118.341 49.6306 113.687 49.6306 108.118C49.6306 102.556 69.5819 97.9019 96.3119 96.7057V114.883C98.0581 115.007 103.063 115.303 109.979 115.303C118.277 115.303 122.437 114.959 123.214 114.89V96.7194C149.889 97.9088 169.792 102.563 169.792 108.118C169.792 113.687 149.889 118.328 123.214 119.51ZM123.214 94.8288V78.5626H160.435V53.7576H59.0906V78.5626H96.3119V94.8219C66.0619 96.2107 43.3125 102.206 43.3125 109.383C43.3125 116.561 66.0619 122.549 96.3119 123.944V176.071H123.214V123.931C153.416 122.542 176.11 116.554 176.11 109.383C176.11 102.213 153.416 96.2244 123.214 94.8288Z"
                fill="white" />
        </g>
        <defs>
            <clipPath id="clip0_4085_49125">
                <rect width="220" height="220" fill="white" />
            </clipPath>
        </defs>
    </symbol>

    <!-- XRP -->
    <symbol id='XRP-base' viewBox="0 0 220 220" fill="none"
        xmlns="http://www.w3.org/2000/svg">
        <g clip-path="url(#clip0_4085_49322)">
            <path
                d="M110 220C170.751 220 220 170.751 220 110C220 49.2487 170.751 0 110 0C49.2487 0 0 49.2487 0 110C0 170.751 49.2487 220 110 220Z"
                fill="#23292F" />
            <path
                d="M158.606 55H178.475L137.122 95.9544C129.892 103.078 120.15 107.071 110 107.071C99.8504 107.071 90.1081 103.078 82.8781 95.9544L41.4906 55H61.3938L92.8125 86.0956C97.3878 90.6115 103.558 93.1436 109.986 93.1436C116.415 93.1436 122.585 90.6115 127.16 86.0956L158.606 55ZM61.1531 168.871H41.25L82.8781 127.669C90.1081 120.545 99.8504 116.552 110 116.552C120.15 116.552 129.892 120.545 137.122 127.669L178.75 168.864H158.847L127.188 137.5C122.612 132.984 116.442 130.452 110.014 130.452C103.585 130.452 97.4153 132.984 92.84 137.5L61.1462 168.871H61.1531Z"
                fill="white" />
        </g>
        <defs>
            <clipPath id="clip0_4085_49322">
                <rect width="220" height="220" fill="white" />
            </clipPath>
        </defs>
    </symbol>

    <!-- BNB -->
    <symbol id='BNB-base' viewBox="0 0 220 220" fill="none"
        xmlns="http://www.w3.org/2000/svg">
        <g clip-path="url(#clip0_4085_49125)">
            <path
                d="M110 220C170.751 220 220 170.751 220 110C220 49.2487 170.751 0 110 0C49.2487 0 0 49.2487 0 110C0 170.751 49.2487 220 110 220Z"
                fill="#26A17B" />
            <path
                d="M83.2975 99.0275L110 72.325L136.716 99.0413L152.254 83.5037L110 41.25L67.76 83.49L83.2975 99.0275ZM41.25 110L56.7875 94.4625L72.325 110L56.7875 125.537L41.25 110ZM83.2975 120.973L110 147.675L136.716 120.959L152.254 136.489L110 178.75L67.76 136.51L67.7394 136.489L83.2975 120.973ZM147.675 110L163.213 94.4625L178.75 110L163.213 125.537L147.675 110ZM125.757 109.986H125.771V110L110 125.771L94.2494 110.027L94.2219 110L94.2494 109.979L97.0062 107.216L98.3469 105.875L110 94.2288L125.764 109.993L125.757 109.986Z"
                fill="white" />
        </g>
    </symbol>

    <!-- SOL -->
    <symbol id='SOL-base' viewBox="0 0 220 220" fill="none"
        xmlns="http://www.w3.org/2000/svg">
        <rect x="220" y="220" width="220" height="220" rx="110" transform="rotate(180 220 220)"
            fill="black" />
        <mask id="mask0_103_1242" style="mask-type:luminance" maskUnits="userSpaceOnUse" x="40"
            y="47"
            width="140" height="126">
            <path d="M40 173H180V47H40V173Z" fill="white" />
        </mask>
        <g mask="url(#mask0_103_1242)">
            <path
                d="M40.7212 73.6581L63.8322 48.7162C64.3346 48.1743 64.9426 47.7424 65.6177 47.4472C66.2932 47.1519 67.022 46.9996 67.7584 47H177.317C177.84 47 178.351 47.1537 178.788 47.4422C179.225 47.7307 179.569 48.1415 179.778 48.6237C179.986 49.1063 180.05 49.6393 179.961 50.1579C179.872 50.6765 179.635 51.1574 179.279 51.542L156.15 76.4839C155.649 77.0245 155.043 77.4555 154.37 77.7508C153.696 78.046 152.97 78.1988 152.236 78.2001H42.683C42.1604 78.2001 41.6491 78.0465 41.212 77.7579C40.7744 77.4694 40.4308 77.0587 40.2223 76.576C40.0139 76.0938 39.9504 75.5604 40.0389 75.0422C40.1275 74.5236 40.3646 74.0428 40.7212 73.6581ZM63.8322 123.884C64.3346 124.426 64.9426 124.858 65.6177 125.153C66.2932 125.448 67.022 125.601 67.7584 125.6H177.317C177.84 125.6 178.351 125.446 178.788 125.158C179.225 124.869 179.569 124.459 179.778 123.976C179.986 123.494 180.05 122.961 179.961 122.442C179.872 121.924 179.635 121.443 179.279 121.058L156.15 96.1162C155.649 95.5756 155.043 95.1446 154.37 94.8493C153.696 94.5541 152.97 94.4013 152.236 94.3999H42.683C42.1604 94.3999 41.6491 94.5536 41.212 94.8421C40.7744 95.1306 40.4308 95.5414 40.2223 96.0241C40.0139 96.5063 39.9504 97.0397 40.0389 97.5578C40.1275 98.0764 40.3646 98.5573 40.7212 98.942L63.8322 123.884ZM177.317 141.8H67.7584C67.022 141.8 66.2932 141.952 65.6177 142.247C64.9426 142.542 64.3346 142.974 63.8322 143.516L40.7212 168.458C40.3646 168.843 40.1275 169.324 40.0389 169.842C39.9504 170.361 40.0139 170.894 40.2223 171.376C40.4308 171.859 40.7744 172.269 41.212 172.558C41.6491 172.846 42.1604 173 42.683 173H152.236C152.97 172.999 153.696 172.846 154.37 172.551C155.043 172.255 155.649 171.824 156.15 171.284L179.273 146.342C179.629 145.958 179.866 145.477 179.955 144.959C180.044 144.441 179.981 143.909 179.773 143.427C179.565 142.944 179.222 142.534 178.786 142.245C178.35 141.956 177.839 141.801 177.317 141.8Z"
                fill="url(#paint0_linear_103_1242)" />
        </g>
        <defs>
            <linearGradient id="paint0_linear_103_1242" x1="168.182" y1="43.9971" x2="52.4843"
                y2="173.606" gradientUnits="userSpaceOnUse">
                <stop offset="0.08" stop-color="#9945FF" />
                <stop offset="0.3" stop-color="#8752F3" />
                <stop offset="0.5" stop-color="#5497D5" />
                <stop offset="0.6" stop-color="#43B4CA" />
                <stop offset="0.72" stop-color="#28E0B9" />
                <stop offset="0.97" stop-color="#19FB9B" />
            </linearGradient>
        </defs>
    </symbol>

</svg> 