<svg xmlns="http://www.w3.org/2000/svg" xmlns:xlink="http://www.w3.org/1999/xlink">
    <symbol id="icon-search" width="24" height="24" viewBox="0 0 24 24" fill="none"
        xmlns="http://www.w3.org/2000/svg">
        <path
            d="M11.5 21.75C5.85 21.75 1.25 17.15 1.25 11.5C1.25 5.85 5.85 1.25 11.5 1.25C17.15 1.25 21.75 5.85 21.75 11.5C21.75 17.15 17.15 21.75 11.5 21.75ZM11.5 2.75C6.67 2.75 2.75 6.68 2.75 11.5C2.75 16.32 6.67 20.25 11.5 20.25C16.33 20.25 20.25 16.32 20.25 11.5C20.25 6.68 16.33 2.75 11.5 2.75Z"
            fill="currentColor" />
        <path
            d="M22.0004 22.7499C21.8104 22.7499 21.6204 22.6799 21.4704 22.5299L19.4704 20.5299C19.1804 20.2399 19.1804 19.7599 19.4704 19.4699C19.7604 19.1799 20.2404 19.1799 20.5304 19.4699L22.5304 21.4699C22.8204 21.7599 22.8204 22.2399 22.5304 22.5299C22.3804 22.6799 22.1904 22.7499 22.0004 22.7499Z"
            fill="currentColor" />
    </symbol>

    <symbol id="icon-earth" width="24" height="24" viewBox="0 0 24 24" fill="none"
        xmlns="http://www.w3.org/2000/svg">
        <g clip-path="url(#clip0_9294_34692)">
            <path
                d="M12.0303 2C6.51027 2 2.03027 6.48 2.03027 12C2.03027 17.52 6.51027 22 12.0303 22C17.5503 22 22.0303 17.52 22.0303 12C22.0303 9.35 20.9803 6.8 19.1103 4.92C17.2303 3.05 14.6903 2 12.0303 2Z"
                stroke="currentColor" stroke-width="1.5" stroke-linecap="round"
                stroke-linejoin="round" />
            <path
                d="M2.5498 15.1998L2.6098 15.1398C4.1798 13.5698 7.13981 16.8998 8.89981 15.1398C10.4698 13.5698 8.10982 11.2098 10.4698 8.84978C12.6898 6.62978 11.2598 4.91977 8.89981 2.55977L8.84982 2.50977"
                stroke="currentColor" stroke-width="1.5" stroke-linecap="round"
                stroke-linejoin="round" />
            <path
                d="M11.45 21.9698C11.37 21.8098 11.31 21.6398 11.26 21.4598C10.96 20.2998 11.29 19.0698 12.14 18.2298C12.99 17.3898 14.22 17.0698 15.38 17.3798C16.53 17.6998 17.43 18.5998 17.73 19.7598C17.76 19.8898 17.78 20.0198 17.79 20.1598"
                stroke="currentColor" stroke-width="1.5" stroke-linecap="round"
                stroke-linejoin="round" />
        </g>
        <defs>
            <clipPath id="clip0_9294_34692">
                <rect width="24" height="24" fill="currentColor" />
            </clipPath>
        </defs>
    </symbol>

    <symbol id="icon-empty-wallet" width="24" height="24" viewBox="0 0 24 24" fill="none"
        xmlns="http://www.w3.org/2000/svg">
        <path
            d="M17.74 22.75H6.26C3.77 22.75 1.75 20.73 1.75 18.24V11.51C1.75 9.02001 3.77 7 6.26 7H17.74C20.23 7 22.25 9.02001 22.25 11.51V12.95C22.25 13.36 21.91 13.7 21.5 13.7H19.48C19.13 13.7 18.81 13.83 18.58 14.07L18.57 14.08C18.29 14.35 18.16 14.72 18.19 15.1C18.25 15.76 18.88 16.29 19.6 16.29H21.5C21.91 16.29 22.25 16.63 22.25 17.04V18.23C22.25 20.73 20.23 22.75 17.74 22.75ZM6.26 8.5C4.6 8.5 3.25 9.85001 3.25 11.51V18.24C3.25 19.9 4.6 21.25 6.26 21.25H17.74C19.4 21.25 20.75 19.9 20.75 18.24V17.8H19.6C18.09 17.8 16.81 16.68 16.69 15.24C16.61 14.42 16.91 13.61 17.51 13.02C18.03 12.49 18.73 12.2 19.48 12.2H20.75V11.51C20.75 9.85001 19.4 8.5 17.74 8.5H6.26Z"
            fill="currentColor" />
        <path
            d="M2.5 13.16C2.09 13.16 1.75 12.82 1.75 12.41V7.84006C1.75 6.35006 2.69 5.00001 4.08 4.47001L12.02 1.47001C12.84 1.16001 13.75 1.27005 14.46 1.77005C15.18 2.27005 15.6 3.08005 15.6 3.95005V7.75003C15.6 8.16003 15.26 8.50003 14.85 8.50003C14.44 8.50003 14.1 8.16003 14.1 7.75003V3.95005C14.1 3.57005 13.92 3.22003 13.6 3.00003C13.28 2.78003 12.9 2.73003 12.54 2.87003L4.6 5.87003C3.79 6.18003 3.24 6.97006 3.24 7.84006V12.41C3.25 12.83 2.91 13.16 2.5 13.16Z"
            fill="currentColor" />
        <path
            d="M19.6005 17.8002C18.0905 17.8002 16.8105 16.6802 16.6905 15.2402C16.6105 14.4102 16.9105 13.6002 17.5105 13.0102C18.0205 12.4902 18.7205 12.2002 19.4705 12.2002H21.5505C22.5405 12.2302 23.3005 13.0102 23.3005 13.9702V16.0302C23.3005 16.9902 22.5405 17.7702 21.5805 17.8002H19.6005ZM21.5305 13.7002H19.4805C19.1305 13.7002 18.8105 13.8302 18.5805 14.0702C18.2905 14.3502 18.1505 14.7302 18.1905 15.1102C18.2505 15.7702 18.8805 16.3002 19.6005 16.3002H21.5605C21.6905 16.3002 21.8105 16.1802 21.8105 16.0302V13.9702C21.8105 13.8202 21.6905 13.7102 21.5305 13.7002Z"
            fill="currentColor" />
        <path
            d="M14 12.75H7C6.59 12.75 6.25 12.41 6.25 12C6.25 11.59 6.59 11.25 7 11.25H14C14.41 11.25 14.75 11.59 14.75 12C14.75 12.41 14.41 12.75 14 12.75Z"
            fill="currentColor" />
    </symbol>

    <symbol id="icon-notification" width="24" height="24" viewBox="0 0 24 24" fill="none"
        xmlns="http://www.w3.org/2000/svg">
        <path
            d="M12.0199 20.5299C9.68987 20.5299 7.35987 20.1599 5.14987 19.4199C4.30987 19.1299 3.66987 18.5399 3.38987 17.7699C3.09987 16.9999 3.19987 16.1499 3.65987 15.3899L4.80987 13.4799C5.04987 13.0799 5.26987 12.2799 5.26987 11.8099V8.91992C5.26987 5.19992 8.29987 2.16992 12.0199 2.16992C15.7399 2.16992 18.7699 5.19992 18.7699 8.91992V11.8099C18.7699 12.2699 18.9899 13.0799 19.2299 13.4899L20.3699 15.3899C20.7999 16.1099 20.8799 16.9799 20.5899 17.7699C20.2999 18.5599 19.6699 19.1599 18.8799 19.4199C16.6799 20.1599 14.3499 20.5299 12.0199 20.5299ZM12.0199 3.66992C9.12987 3.66992 6.76987 6.01992 6.76987 8.91992V11.8099C6.76987 12.5399 6.46987 13.6199 6.09987 14.2499L4.94987 16.1599C4.72987 16.5299 4.66987 16.9199 4.79987 17.2499C4.91987 17.5899 5.21987 17.8499 5.62987 17.9899C9.80987 19.3899 14.2399 19.3899 18.4199 17.9899C18.7799 17.8699 19.0599 17.5999 19.1899 17.2399C19.3199 16.8799 19.2899 16.4899 19.0899 16.1599L17.9399 14.2499C17.5599 13.5999 17.2699 12.5299 17.2699 11.7999V8.91992C17.2699 6.01992 14.9199 3.66992 12.0199 3.66992Z"
            fill="currentColor" />
        <path
            d="M13.8796 3.94018C13.8096 3.94018 13.7396 3.93018 13.6696 3.91018C13.3796 3.83018 13.0996 3.77018 12.8296 3.73018C11.9796 3.62018 11.1596 3.68018 10.3896 3.91018C10.1096 4.00018 9.80963 3.91018 9.61963 3.70018C9.42963 3.49018 9.36963 3.19018 9.47963 2.92018C9.88963 1.87018 10.8896 1.18018 12.0296 1.18018C13.1696 1.18018 14.1696 1.86018 14.5796 2.92018C14.6796 3.19018 14.6296 3.49018 14.4396 3.70018C14.2896 3.86018 14.0796 3.94018 13.8796 3.94018Z"
            fill="currentColor" />
        <path
            d="M12.0195 22.8101C11.0295 22.8101 10.0695 22.4101 9.36953 21.7101C8.66953 21.0101 8.26953 20.0501 8.26953 19.0601H9.76953C9.76953 19.6501 10.0095 20.2301 10.4295 20.6501C10.8495 21.0701 11.4295 21.3101 12.0195 21.3101C13.2595 21.3101 14.2695 20.3001 14.2695 19.0601H15.7695C15.7695 21.1301 14.0895 22.8101 12.0195 22.8101Z"
            fill="currentColor" />
    </symbol>

</svg>