<svg width="64" height="64" viewBox="0 0 64 64" fill="none" xmlns="http://www.w3.org/2000/svg">
<path d="M32 64C49.6731 64 64 49.6731 64 32C64 14.3269 49.6731 0 32 0C14.3269 0 0 14.3269 0 32C0 49.6731 14.3269 64 32 64Z" fill="white" fill-opacity="0.36"/>
<mask id="mask0_3761_26030" style="mask-type:luminance" maskUnits="userSpaceOnUse" x="0" y="0" width="64" height="64">
<path d="M32 64C49.6731 64 64 49.6731 64 32C64 14.3269 49.6731 0 32 0C14.3269 0 0 14.3269 0 32C0 49.6731 14.3269 64 32 64Z" fill="white"/>
</mask>
<g mask="url(#mask0_3761_26030)">
<path fill-rule="evenodd" clip-rule="evenodd" d="M18.2994 20.3769C22.2388 18.2761 27.213 17.2272 33.2218 17.2302C39.2286 17.2302 44.2028 18.2791 48.1443 20.3769C48.837 20.7459 49.2445 21.4486 49.1955 22.1898L48.4027 34.13C48.0647 39.1981 45.1609 43.8162 40.5778 46.5744L34.3652 50.3159C33.6694 50.7349 32.7739 50.7349 32.078 50.3159L25.8657 46.5746C21.2825 43.8163 18.3788 39.1981 18.041 34.13L17.2481 22.1898C17.1991 21.4486 17.6066 20.7459 18.2994 20.3769Z" stroke="white" stroke-width="0.25457"/>
<path d="M18.4707 20.3838L32.5948 44.1111C32.7324 44.3421 32.9942 44.4851 33.2781 44.4844C33.562 44.4837 33.823 44.3395 33.9593 44.1078L47.9742 20.2671" stroke="white" stroke-width="0.25457"/>
<path d="M19.5605 39.906L32.9554 17.6692C33.0386 17.5311 33.1959 17.446 33.3661 17.447C33.5362 17.4481 33.6924 17.5351 33.7736 17.6741L46.8064 40.004" stroke="white" stroke-width="0.25457"/>
<path d="M41.2309 32.8858C42.1545 32.8858 42.9032 32.1364 42.9032 31.2119C42.9032 30.2875 42.1545 29.5381 41.2309 29.5381C40.3073 29.5381 39.5586 30.2875 39.5586 31.2119C39.5586 32.1364 40.3073 32.8858 41.2309 32.8858Z" fill="white"/>
<path d="M33.2309 46.4236C34.1545 46.4236 34.9032 45.6742 34.9032 44.7498C34.9032 43.8253 34.1545 43.0759 33.2309 43.0759C32.3073 43.0759 31.5586 43.8253 31.5586 44.7498C31.5586 45.6742 32.3073 46.4236 33.2309 46.4236Z" fill="white"/>
<path d="M24.6156 32.8863C25.5392 32.8863 26.2879 32.1369 26.2879 31.2124C26.2879 30.288 25.5392 29.5386 24.6156 29.5386C23.6921 29.5386 22.9434 30.288 22.9434 31.2124C22.9434 32.1369 23.6921 32.8863 24.6156 32.8863Z" fill="white"/>
<path d="M33.231 45.2292V49.5369" stroke="white" stroke-width="0.25457" stroke-linecap="square"/>
<path d="M19.5176 39.8455C20.6687 40.1002 26.8537 43.8434 33.8106 45.4307L46.9462 39.8455" stroke="white" stroke-width="0.25457"/>
</g>
</svg>
