<svg width="64" height="64" viewBox="0 0 64 64" fill="none" xmlns="http://www.w3.org/2000/svg">
<path opacity="0.2" d="M32 64C49.6731 64 64 49.6731 64 32C64 14.3269 49.6731 0 32 0C14.3269 0 0 14.3269 0 32C0 49.6731 14.3269 64 32 64Z" fill="white"/>
<path d="M23.3986 17.2471C26.8295 17.3277 30.2665 19.1314 31.9394 22.1644C34.6212 17.36 41.5622 15.8021 46.2051 18.6578C50.6836 21.314 52.736 27.2913 50.9008 32.126C49.8025 35.0704 47.8556 37.6137 45.7179 39.893C41.5277 44.2158 36.7772 47.9622 31.9373 51.5394C29.5986 49.7861 27.2335 48.061 25.0207 46.1484C21.7948 43.4621 18.5831 40.6971 16.0008 37.3739C14.2934 35.147 12.8053 32.6238 12.3993 29.8104C11.9628 26.4227 13.118 22.8516 15.5095 20.3849C17.5295 18.2809 20.4732 17.1141 23.3986 17.2471Z" fill="white" fill-opacity="0.52"/>
<path d="M20.0234 33.7533H25.5819L27.0549 37.1652C27.0718 37.2042 27.1282 37.2009 27.1403 37.1601L28.9925 30.9487C29.0051 30.9063 29.0648 30.9051 29.0791 30.947L32.1278 39.8863C32.1426 39.9298 32.2052 39.9264 32.2153 39.8816L35.6386 24.6515C35.6488 24.6061 35.7125 24.6035 35.7264 24.6479L38.5648 33.7214C38.5708 33.7404 38.5884 33.7533 38.6082 33.7533H43.6664" stroke="white" stroke-width="0.275784"/>
<path fill-rule="evenodd" clip-rule="evenodd" d="M43.7766 35.1659C44.5614 35.1659 45.1977 34.5343 45.1977 33.7552C45.1977 32.9761 44.5614 32.3445 43.7766 32.3445C42.9917 32.3445 42.3555 32.9761 42.3555 33.7552C42.3555 34.5343 42.9917 35.1659 43.7766 35.1659Z" fill="white"/>
</svg>
