<svg width="220" height="220" viewBox="0 0 220 220" fill="none" xmlns="http://www.w3.org/2000/svg">
    <rect x="220" y="220" width="220" height="220" rx="110" transform="rotate(180 220 220)"
        fill="black" />
    <mask id="mask0_103_1242" style="mask-type:luminance" maskUnits="userSpaceOnUse" x="40" y="47"
        width="140" height="126">
        <path d="M40 173H180V47H40V173Z" fill="white" />
    </mask>
    <g mask="url(#mask0_103_1242)">
        <path
            d="M40.7212 73.6581L63.8322 48.7162C64.3346 48.1743 64.9426 47.7424 65.6177 47.4472C66.2932 47.1519 67.022 46.9996 67.7584 47H177.317C177.84 47 178.351 47.1537 178.788 47.4422C179.225 47.7307 179.569 48.1415 179.778 48.6237C179.986 49.1063 180.05 49.6393 179.961 50.1579C179.872 50.6765 179.635 51.1574 179.279 51.542L156.15 76.4839C155.649 77.0245 155.043 77.4555 154.37 77.7508C153.696 78.046 152.97 78.1988 152.236 78.2001H42.683C42.1604 78.2001 41.6491 78.0465 41.212 77.7579C40.7744 77.4694 40.4308 77.0587 40.2223 76.576C40.0139 76.0938 39.9504 75.5604 40.0389 75.0422C40.1275 74.5236 40.3646 74.0428 40.7212 73.6581ZM63.8322 123.884C64.3346 124.426 64.9426 124.858 65.6177 125.153C66.2932 125.448 67.022 125.601 67.7584 125.6H177.317C177.84 125.6 178.351 125.446 178.788 125.158C179.225 124.869 179.569 124.459 179.778 123.976C179.986 123.494 180.05 122.961 179.961 122.442C179.872 121.924 179.635 121.443 179.279 121.058L156.15 96.1162C155.649 95.5756 155.043 95.1446 154.37 94.8493C153.696 94.5541 152.97 94.4013 152.236 94.3999H42.683C42.1604 94.3999 41.6491 94.5536 41.212 94.8421C40.7744 95.1306 40.4308 95.5414 40.2223 96.0241C40.0139 96.5063 39.9504 97.0397 40.0389 97.5578C40.1275 98.0764 40.3646 98.5573 40.7212 98.942L63.8322 123.884ZM177.317 141.8H67.7584C67.022 141.8 66.2932 141.952 65.6177 142.247C64.9426 142.542 64.3346 142.974 63.8322 143.516L40.7212 168.458C40.3646 168.843 40.1275 169.324 40.0389 169.842C39.9504 170.361 40.0139 170.894 40.2223 171.376C40.4308 171.859 40.7744 172.269 41.212 172.558C41.6491 172.846 42.1604 173 42.683 173H152.236C152.97 172.999 153.696 172.846 154.37 172.551C155.043 172.255 155.649 171.824 156.15 171.284L179.273 146.342C179.629 145.958 179.866 145.477 179.955 144.959C180.044 144.441 179.981 143.909 179.773 143.427C179.565 142.944 179.222 142.534 178.786 142.245C178.35 141.956 177.839 141.801 177.317 141.8Z"
            fill="url(#paint0_linear_103_1242)" />
    </g>
    <defs>
        <linearGradient id="paint0_linear_103_1242" x1="168.182" y1="43.9971" x2="52.4843"
            y2="173.606" gradientUnits="userSpaceOnUse">
            <stop offset="0.08" stop-color="#9945FF" />
            <stop offset="0.3" stop-color="#8752F3" />
            <stop offset="0.5" stop-color="#5497D5" />
            <stop offset="0.6" stop-color="#43B4CA" />
            <stop offset="0.72" stop-color="#28E0B9" />
            <stop offset="0.97" stop-color="#19FB9B" />
        </linearGradient>
    </defs>
</svg>