<svg width="9" height="9" viewBox="0 0 9 9" fill="none" xmlns="http://www.w3.org/2000/svg">
     <path opacity="0.2"
            d="M110 220C170.751 220 220 170.751 220 110C220 49.2487 170.751 0 110 0C49.2487 0 0 49.2487 0 110C0 170.751 49.2487 220 110 220Z"
            fill="white" />
    <path fill-rule="evenodd" clip-rule="evenodd"
        d="M5.4278 3.68409C5.31153 3.58837 5.16015 3.54046 4.97367 3.54039C5.16754 3.36564 5.21542 3.13914 5.11739 2.86085C5.0826 2.75975 5.0329 2.677 4.96819 2.61249C4.90345 2.54797 4.82641 2.50233 4.73683 2.47561C4.6473 2.44881 4.55369 2.43476 4.45617 2.4333C4.35862 2.43184 4.24918 2.44041 4.12793 2.45901L3.98035 1.86711L3.63383 1.95351L3.77731 2.52897C3.7173 2.54393 3.62618 2.56831 3.50395 2.60211L3.35931 2.02196L3.01273 2.10837L3.16031 2.70027C3.11118 2.71419 3.03863 2.73312 2.94262 2.75706L2.46496 2.87364L2.561 3.25885L2.81078 3.19657C2.9248 3.16814 3.00484 3.20475 3.05088 3.30635L3.21896 3.98047C3.23398 3.97672 3.24617 3.97454 3.25557 3.97386L3.21955 3.98284L3.45496 4.92702C3.46288 5.00985 3.42934 5.06065 3.35432 5.07935L3.10456 5.14163L3.14196 5.58886L3.59204 5.47665C3.62055 5.46954 3.66188 5.45965 3.71608 5.44689C3.77028 5.43421 3.81087 5.42451 3.83788 5.41778L3.98721 6.01671L4.33384 5.93029L4.18626 5.3384C4.24966 5.3243 4.34136 5.30224 4.46138 5.27232L4.60836 5.86184L4.95489 5.77544L4.80556 5.17651C4.92705 5.13958 5.03327 5.10068 5.12419 5.05966C5.21515 5.01862 5.29959 4.96892 5.3774 4.91041C5.45522 4.85195 5.51654 4.78798 5.56138 4.71859C5.60625 4.64924 5.63721 4.56747 5.65445 4.47334C5.67156 4.37925 5.67157 4.2753 5.65431 4.16149C5.61965 3.939 5.54409 3.77986 5.4278 3.68409ZM3.61578 3.02328L3.6158 3.02328L3.79559 3.74434C3.80311 3.74247 3.82905 3.73644 3.87353 3.72617C3.91799 3.7159 3.95286 3.70721 3.97819 3.70007C4.00348 3.69295 4.0406 3.682 4.08954 3.66731C4.13848 3.65263 4.17865 3.63803 4.21009 3.62353C4.24152 3.60905 4.278 3.59081 4.3195 3.56881C4.36101 3.54683 4.39381 3.52326 4.41781 3.49816C4.44183 3.47306 4.46436 3.44497 4.48529 3.41397C4.50621 3.38297 4.519 3.34776 4.52348 3.30839C4.52798 3.269 4.52476 3.22738 4.51383 3.18353C4.50095 3.13186 4.48015 3.0884 4.45142 3.05316C4.42275 3.0179 4.39167 2.9907 4.3582 2.97161C4.32479 2.9525 4.28334 2.93954 4.23381 2.93278C4.18435 2.92598 4.13983 2.92335 4.10039 2.92488C4.06095 2.92642 4.01326 2.93164 3.95733 2.9406C3.90138 2.94956 3.85738 2.95845 3.82531 2.96726C3.79326 2.9761 3.75296 2.98696 3.70438 2.99993C3.65585 3.01287 3.62633 3.02065 3.6158 3.02328L3.6158 3.02327L3.61578 3.02327L3.61578 3.02328ZM4.92931 4.49455C4.94515 4.4623 4.95569 4.42639 4.961 4.38679C4.96629 4.34719 4.96346 4.30555 4.95253 4.26166C4.93847 4.20527 4.91473 4.15796 4.88125 4.11975C4.84782 4.0815 4.81111 4.05246 4.77106 4.03246C4.73102 4.0125 4.68191 3.99939 4.62379 3.9931C4.56561 3.98679 4.51291 3.98457 4.46557 3.98638C4.41818 3.98821 4.36092 3.99504 4.29378 4.00682C4.22657 4.01855 4.17421 4.02915 4.13671 4.0385C4.0992 4.04786 4.05103 4.06064 3.99214 4.077C3.93327 4.09338 3.89782 4.10303 3.88583 4.10602L4.08378 4.89994C4.09579 4.89695 4.12362 4.89043 4.16733 4.88031C4.21103 4.87022 4.24715 4.86167 4.27566 4.85456C4.30416 4.84746 4.34364 4.83635 4.39405 4.82133C4.44449 4.80624 4.48758 4.79219 4.52334 4.7791C4.55915 4.76599 4.60023 4.74872 4.6467 4.72714C4.69306 4.70557 4.732 4.68429 4.76338 4.6631C4.79473 4.64198 4.82631 4.61667 4.85796 4.58713C4.88963 4.55764 4.91341 4.52674 4.92931 4.49455Z"
        fill="white" />
    <path fill-rule="evenodd" clip-rule="evenodd"
        d="M4.02793 7.43624C5.91029 7.43624 7.43624 5.91029 7.43624 4.02793C7.43624 2.14558 5.91029 0.619629 4.02793 0.619629C2.14558 0.619629 0.619629 2.14558 0.619629 4.02793C0.619629 5.91029 2.14558 7.43624 4.02793 7.43624Z"
        stroke="white" stroke-width="0.427975" />
</svg>