<svg width="64" height="64" viewBox="0 0 64 64" fill="none" xmlns="http://www.w3.org/2000/svg">
    <path opacity="0.2"
        d="M32 64C49.6731 64 64 49.6731 64 32C64 14.3269 49.6731 0 32 0C14.3269 0 0 14.3269 0 32C0 49.6731 14.3269 64 32 64Z"
        fill="white" />
    <path fill-rule="evenodd" clip-rule="evenodd"
        d="M43.1186 29.27C42.1949 28.5096 40.9922 28.1289 39.5108 28.1284C41.051 26.7401 41.4314 24.9407 40.6525 22.7299C40.3762 21.9266 39.9814 21.2692 39.4673 20.7567C38.9529 20.2442 38.3409 19.8816 37.6292 19.6693C36.918 19.4565 36.1743 19.3448 35.3995 19.3332C34.6246 19.3216 33.7552 19.3897 32.7919 19.5375L31.6195 14.8352L28.8666 15.5216L30.0064 20.0932C29.5297 20.2121 28.8058 20.4058 27.8348 20.6743L26.6857 16.0653L23.9324 16.7518L25.1048 21.4541C24.7144 21.5647 24.1381 21.7151 23.3753 21.9053L19.5806 22.8314L20.3436 25.8917L22.3279 25.397C23.2338 25.1711 23.8696 25.4619 24.2354 26.2691L25.5707 31.6245C25.69 31.5948 25.7869 31.5774 25.8615 31.572L25.5754 31.6434L27.4455 39.1443C27.5084 39.8023 27.242 40.2059 26.646 40.3545L24.6618 40.8492L24.959 44.4023L28.5346 43.5108C28.7611 43.4543 29.0894 43.3758 29.52 43.2743C29.9506 43.1737 30.273 43.0966 30.4876 43.0431L31.674 47.8013L34.4277 47.1147L33.2553 42.4125C33.7589 42.3004 34.4875 42.1252 35.4409 41.8875L36.6086 46.5709L39.3616 45.8845L38.1753 41.1263C39.1404 40.833 39.9843 40.524 40.7066 40.198C41.4292 39.872 42.1 39.4772 42.7182 39.0124C43.3364 38.5479 43.8236 38.0397 44.1798 37.4884C44.5363 36.9375 44.7822 36.2879 44.9192 35.5401C45.0551 34.7926 45.0552 33.9668 44.9181 33.0626C44.6427 31.2951 44.0425 30.0308 43.1186 29.27ZM28.7257 24.0207L28.7259 24.0207L30.1541 29.7491C30.2139 29.7342 30.42 29.6863 30.7733 29.6047C31.1266 29.5232 31.4036 29.4541 31.6048 29.3974C31.8057 29.3408 32.1006 29.2538 32.4894 29.1372C32.8782 29.0205 33.1973 28.9045 33.4471 28.7893C33.6968 28.6743 33.9866 28.5294 34.3163 28.3546C34.6461 28.18 34.9067 27.9927 35.0973 27.7934C35.2881 27.594 35.4671 27.3708 35.6334 27.1245C35.7996 26.8783 35.9012 26.5985 35.9368 26.2858C35.9726 25.9728 35.947 25.6421 35.8601 25.2938C35.7578 24.8834 35.5926 24.5381 35.3643 24.2581C35.1365 23.9779 34.8896 23.7619 34.6238 23.6102C34.3583 23.4584 34.029 23.3554 33.6355 23.3017C33.2426 23.2477 32.889 23.2268 32.5756 23.239C32.2623 23.2512 31.8834 23.2927 31.4391 23.3638C30.9946 23.435 30.645 23.5057 30.3903 23.5757C30.1356 23.6459 29.8155 23.7322 29.4295 23.8352C29.044 23.938 28.8095 23.9998 28.7259 24.0207L28.7258 24.0206L28.7257 24.0207L28.7257 24.0207ZM39.1598 35.7086C39.2857 35.4524 39.3694 35.1671 39.4115 34.8526C39.4535 34.538 39.4311 34.2072 39.3442 33.8585C39.2325 33.4105 39.0439 33.0346 38.778 32.7311C38.5124 32.4272 38.2208 32.1965 37.9026 32.0376C37.5845 31.8791 37.1944 31.7749 36.7326 31.7249C36.2704 31.6748 35.8517 31.6572 35.4756 31.6715C35.0992 31.6861 34.6442 31.7403 34.1109 31.8339C33.5769 31.9271 33.161 32.0113 32.8631 32.0856C32.5651 32.1599 32.1824 32.2615 31.7145 32.3915C31.2468 32.5216 30.9652 32.5982 30.87 32.622L32.4426 38.9292C32.538 38.9054 32.7591 38.8536 33.1064 38.7732C33.4535 38.6931 33.7405 38.6252 33.967 38.5687C34.1933 38.5123 34.507 38.424 34.9075 38.3047C35.3082 38.1848 35.6505 38.0732 35.9346 37.9692C36.2191 37.865 36.5454 37.7279 36.9147 37.5564C37.283 37.3851 37.5922 37.216 37.8416 37.0477C38.0907 36.8798 38.3415 36.6788 38.5929 36.4441C38.8445 36.2098 39.0334 35.9643 39.1598 35.7086Z"
        fill="#FFC107" />
    <path fill-rule="evenodd" clip-rule="evenodd"
        d="M32.0008 59.0779C46.9549 59.0779 59.0777 46.9552 59.0777 32.001C59.0777 17.0468 46.9549 4.92407 32.0008 4.92407C17.0466 4.92407 4.92383 17.0468 4.92383 32.001C4.92383 46.9552 17.0466 59.0779 32.0008 59.0779Z"
        stroke="white" stroke-width="0.70325" />
</svg>