<svg width="220" height="220" viewBox="0 0 220 220" fill="none" xmlns="http://www.w3.org/2000/svg">
    <g clip-path="url(#clip0_4085_47453)">
        <path
            d="M220 110C220 131.756 213.549 153.023 201.462 171.113C189.375 189.202 172.195 203.301 152.095 211.627C131.995 219.952 109.878 222.131 88.5401 217.886C67.2022 213.642 47.6021 203.166 32.2183 187.782C16.8345 172.398 6.35804 152.798 2.11367 131.46C-2.13071 110.122 0.0476608 88.0047 8.3733 67.9048C16.6989 47.805 30.7979 30.6253 48.8873 18.5383C66.9767 6.45139 88.2441 0 110 0C139.174 0 167.153 11.5893 187.782 32.2183C208.411 52.8473 220 80.8262 220 110Z"
            fill="#F7931A" />
        <path fill-rule="evenodd" clip-rule="evenodd"
            d="M78.1806 50.2299L103.461 56.9999L109.111 35.9399L121.751 39.3699L116.321 59.5599L126.631 62.3299L132.071 41.9199L144.931 45.3599L139.391 65.8799C139.391 65.8799 160.391 70.5299 165.331 87.6099C170.271 104.69 154.471 113.66 149.591 114C149.591 114 167.991 124.09 161.671 143.94C155.351 163.79 135.951 167.34 115.541 162.79L110.001 184.07L97.1406 180.63L102.791 159.68L92.5906 156.9L86.9406 178L74.1806 174.57L79.8406 153.57L53.8906 146.57L60.4306 132.05C60.4306 132.05 67.7506 134.05 70.5206 134.71C73.2906 135.37 75.0706 132.49 75.8506 129.61C76.6306 126.73 88.3806 78.9999 89.4906 75.0699C90.6006 71.1399 90.1506 68.0699 85.4906 66.8599C80.8306 65.6499 74.4906 63.7599 74.4906 63.7599L78.1806 50.2299ZM103.681 113.44L96.6806 141.27C96.6806 141.27 131.391 153.8 135.831 136.17C140.271 118.54 103.681 113.44 103.681 113.44ZM106.901 100.24L113.771 74.7399C113.771 74.7399 143.491 80.0599 139.831 94.2499C136.171 108.44 118.651 103 106.901 100.24Z"
            fill="white" />
    </g>
    <defs>
        <clipPath id="clip0_4085_47453">
            <rect width="220" height="220" fill="white" />
        </clipPath>
    </defs>
</svg>