<svg width="64" height="64" viewBox="0 0 64 64" fill="none" xmlns="http://www.w3.org/2000/svg">
    <path opacity="0.2"
        d="M32 64C49.6731 64 64 49.6731 64 32C64 14.3269 49.6731 0 32 0C14.3269 0 0 14.3269 0 32C0 49.6731 14.3269 64 32 64Z"
        fill="white" />
    <path fill-rule="evenodd" clip-rule="evenodd"
        d="M12.4609 12.4658C12.9574 12.5352 13.4872 12.6045 13.8172 13.0316C15.2761 14.521 16.7239 16.0243 18.1911 17.5082C18.5739 17.8216 18.6654 18.3042 18.7403 18.7674C18.5156 18.7729 18.0719 18.7868 17.8472 18.7951C16.1803 17.1032 14.53 15.3919 12.8576 13.7028C12.4859 13.3977 12.5414 12.8902 12.4609 12.4658Z"
        fill="white" />
    <path fill-rule="evenodd" clip-rule="evenodd"
        d="M19.8164 12.541C20.1437 12.5438 20.4737 12.5604 20.801 12.5937C21.9382 14.0887 22.9311 15.689 24.0322 17.2117C24.3983 17.6582 24.5564 18.213 24.623 18.7788C24.3956 18.7788 23.9407 18.7815 23.7133 18.7815C22.6094 17.159 21.5 15.5392 20.3683 13.9361C20.0494 13.534 19.9218 13.0319 19.8164 12.541Z"
        fill="white" />
    <path fill-rule="evenodd" clip-rule="evenodd"
        d="M27.6699 12.5421C27.9195 12.5393 28.4188 12.5338 28.6656 12.531C29.1233 14.6361 29.8638 16.6969 30.0108 18.8547C29.7667 18.7965 29.2786 18.6772 29.0345 18.619C28.5491 16.6026 27.9722 14.5973 27.6699 12.5421Z"
        fill="white" />
    <path fill-rule="evenodd" clip-rule="evenodd"
        d="M12.5137 19.8691C13.0878 19.9413 13.6286 20.1687 14.0752 20.5403C15.4842 21.6276 16.9791 22.6066 18.377 23.7105C18.732 23.9407 18.5989 24.4206 18.6682 24.77C17.5727 24.77 16.821 23.9185 15.9862 23.3416C14.8268 22.5207 13.6897 21.6747 12.5386 20.8427C12.5331 20.6014 12.5192 20.1132 12.5137 19.8691Z"
        fill="white" />
    <path fill-rule="evenodd" clip-rule="evenodd"
        d="M21.125 21.0695C22.0985 20.9891 22.6477 21.835 23.2385 22.4508C23.8154 23.1248 24.6724 23.7183 24.6141 24.7112C24.4006 24.714 23.9735 24.7168 23.7599 24.7168C22.9334 23.771 21.9709 22.9362 21.2443 21.9099C21.2138 21.7019 21.1555 21.2803 21.125 21.0695Z"
        fill="white" />
    <path fill-rule="evenodd" clip-rule="evenodd"
        d="M27.7539 21.1426C27.9786 21.1371 28.4279 21.1315 28.6525 21.126C29.1573 22.2909 29.8812 23.3975 30.0005 24.69C29.6954 24.6983 29.3931 24.7039 29.088 24.7094C28.6026 23.539 27.8787 22.4323 27.7539 21.1426Z"
        fill="white" />
    <path fill-rule="evenodd" clip-rule="evenodd"
        d="M12.5354 27.4998C14.6156 27.7993 16.6126 28.4955 18.6539 28.9892C18.6484 29.2305 18.6428 29.7103 18.6373 29.9516C16.5405 29.6936 14.5324 28.9864 12.4883 28.4733C12.4994 28.2292 12.5243 27.7438 12.5354 27.4998Z"
        fill="white" />
    <path fill-rule="evenodd" clip-rule="evenodd"
        d="M21.1343 27.5046C22.3852 27.7043 23.4059 28.4948 24.5208 29.0329C24.5347 29.2686 24.5652 29.7401 24.5818 29.9759C23.2589 29.8649 22.2077 28.9968 21.0566 28.4338C21.0761 28.2008 21.1149 27.7376 21.1343 27.5046Z"
        fill="white" />
    <path fill-rule="evenodd" clip-rule="evenodd"
        d="M28.7656 28.6606C29.1761 28.669 29.5866 28.6773 29.9971 28.6773C29.9999 29.0795 30.0026 29.4788 30.0054 29.881C29.5949 29.8616 29.1872 29.881 28.7823 29.942C28.7878 29.5149 28.7823 29.0878 28.7656 28.6606Z"
        fill="white" />
    <path fill-rule="evenodd" clip-rule="evenodd"
        d="M33.9004 18.7742C34.1833 16.6524 34.8046 14.5916 35.2927 12.5115C35.5312 12.5198 36.0111 12.5392 36.2524 12.5503C35.9528 14.6665 35.3232 16.719 34.8573 18.8019C34.616 18.7936 34.1389 18.7797 33.9004 18.7742Z"
        fill="white" />
    <path fill-rule="evenodd" clip-rule="evenodd"
        d="M43.1396 12.5315C43.3809 12.537 43.8635 12.5454 44.1048 12.5481C44.0355 13.5466 43.306 14.2705 42.7902 15.0665C41.9193 16.2619 41.1427 17.5267 40.2329 18.6916C40.0083 18.7304 39.5617 18.8053 39.3398 18.8441C39.3981 18.3893 39.4064 17.8983 39.7115 17.5239C40.8431 15.8515 42.0163 14.2095 43.1396 12.5315Z"
        fill="white" />
    <path fill-rule="evenodd" clip-rule="evenodd"
        d="M50.2898 12.8523C50.5699 12.5001 51.0414 12.5362 51.4436 12.4585C51.4408 12.6887 51.4408 13.1463 51.4381 13.3765C49.6352 15.1489 47.8934 16.985 46.1184 18.785C45.9103 18.7878 45.4971 18.7933 45.2891 18.7933C45.2946 18.5798 45.3029 18.1499 45.3057 17.9363C46.9948 16.2694 48.6201 14.5387 50.2898 12.8523Z"
        fill="white" />
    <path fill-rule="evenodd" clip-rule="evenodd"
        d="M50.2455 20.271C50.5756 19.9687 51.0276 19.9548 51.4409 19.8633C51.4409 20.1074 51.4381 20.5955 51.4381 20.8396C49.8045 22.0156 48.1792 23.1971 46.5539 24.3786C46.2211 24.6532 45.7828 24.6921 45.3807 24.7947C45.3502 24.5756 45.2891 24.1401 45.2559 23.9238C46.9089 22.6895 48.5869 21.4941 50.2455 20.271Z"
        fill="white" />
    <path fill-rule="evenodd" clip-rule="evenodd"
        d="M33.9746 24.7015C34.0606 23.3979 34.815 22.2912 35.2976 21.1152C35.5139 21.1263 35.9438 21.1457 36.1574 21.1568C36.0797 22.4355 35.3226 23.5144 34.8566 24.6709C34.5626 24.682 34.2686 24.6904 33.9746 24.7015Z"
        fill="white" />
    <path fill-rule="evenodd" clip-rule="evenodd"
        d="M39.3555 23.9519C40.2097 22.9923 41.0917 22.0631 41.9626 21.1201C42.1762 21.1257 42.6061 21.1395 42.8197 21.1451C42.7531 21.5223 42.7864 21.955 42.4757 22.2379C41.7407 23.0727 40.9503 23.8549 40.2125 24.6897C40.0128 24.6952 39.6134 24.7091 39.4165 24.7174C39.3998 24.5261 39.3721 24.1433 39.3555 23.9519Z"
        fill="white" />
    <path fill-rule="evenodd" clip-rule="evenodd"
        d="M39.4802 29.0478C40.548 28.4653 41.5798 27.6721 42.8306 27.5583C42.8417 27.7775 42.8639 28.2129 42.8778 28.432C41.7157 28.9756 40.67 29.8992 39.3359 29.9492C39.372 29.7245 39.4441 29.2724 39.4802 29.0478Z"
        fill="white" />
    <path fill-rule="evenodd" clip-rule="evenodd"
        d="M45.2969 28.9814C47.3576 28.5154 49.3601 27.7471 51.4653 27.5142C51.4403 27.8525 51.4126 28.1909 51.3848 28.5293C49.3435 28.9425 47.3798 29.7247 45.2996 29.9466C45.2996 29.7053 45.2969 29.2227 45.2969 28.9814Z"
        fill="white" />
    <path fill-rule="evenodd" clip-rule="evenodd"
        d="M33.9531 28.6841C34.3581 28.6924 34.763 28.6952 35.1679 28.6952C35.1624 29.0946 35.1596 29.494 35.1596 29.8906C34.763 29.8906 34.3636 29.8934 33.9642 29.8989C33.9642 29.494 33.9614 29.089 33.9531 28.6841Z"
        fill="white" />
    <path fill-rule="evenodd" clip-rule="evenodd"
        d="M12.5039 35.5651C14.5397 35.0576 16.5422 34.3781 18.6252 34.0896C18.6335 34.3254 18.6474 34.7996 18.6529 35.0382C16.6116 35.5235 14.6201 36.253 12.5289 36.4943C12.5233 36.2613 12.5122 35.7953 12.5039 35.5651Z"
        fill="white" />
    <path fill-rule="evenodd" clip-rule="evenodd"
        d="M21.0762 35.6015C22.2133 35.0357 23.2645 34.2091 24.5653 34.0732C24.5598 34.2979 24.5514 34.7528 24.5459 34.9802C23.4087 35.5155 22.3797 36.3559 21.0984 36.5084C21.0928 36.281 21.0817 35.8289 21.0762 35.6015Z"
        fill="white" />
    <path fill-rule="evenodd" clip-rule="evenodd"
        d="M28.7852 34.1313C29.1845 34.1424 29.5839 34.1508 29.9833 34.1535C29.9806 34.5557 29.9806 34.9579 29.9833 35.3573C29.5839 35.36 29.1845 35.3628 28.7852 35.3711C28.7935 34.9579 28.7935 34.5446 28.7852 34.1313Z"
        fill="white" />
    <path fill-rule="evenodd" clip-rule="evenodd"
        d="M17.1126 39.8504C17.5425 39.4759 18.0861 39.3345 18.6352 39.2568C18.6352 39.5647 18.6325 39.8726 18.6297 40.1804C16.985 41.3287 15.3846 42.538 13.7621 43.714C13.4071 44.0024 12.955 44.0939 12.5195 44.191C12.5889 43.8221 12.3947 43.2924 12.7636 43.0511C14.1864 41.95 15.6814 40.9404 17.1126 39.8504Z"
        fill="white" />
    <path fill-rule="evenodd" clip-rule="evenodd"
        d="M22.5693 40.5976C23.1185 40.0457 23.5845 39.2607 24.4609 39.2607C24.4997 39.4577 24.5802 39.8515 24.619 40.0484C23.7564 41.0109 22.8772 41.9566 21.9924 42.8997C21.7733 42.8997 21.3351 42.9024 21.116 42.9024C21.0855 41.8845 21.9841 41.2965 22.5693 40.5976Z"
        fill="white" />
    <path fill-rule="evenodd" clip-rule="evenodd"
        d="M27.7559 42.8906C27.9472 41.6203 28.4992 40.4027 29.2092 39.346C29.4006 39.3432 29.7861 39.3404 29.9775 39.3376C29.8971 40.6357 29.1399 41.7368 28.66 42.9072C28.4326 42.9044 27.9805 42.8961 27.7559 42.8906Z"
        fill="white" />
    <path fill-rule="evenodd" clip-rule="evenodd"
        d="M17.5516 45.5513C17.8456 45.1879 18.3365 45.2628 18.747 45.2046C18.7803 46.228 17.8733 46.8133 17.2631 47.4928C15.9373 48.7853 14.7087 50.1804 13.3468 51.434C13.1277 51.4673 12.6867 51.5366 12.4648 51.5699C12.5453 51.1345 12.4815 50.6186 12.8753 50.3163C14.4396 48.7326 15.9679 47.1128 17.5516 45.5513Z"
        fill="white" />
    <path fill-rule="evenodd" clip-rule="evenodd"
        d="M23.7273 45.2449C23.952 45.2476 24.3985 45.2532 24.6232 45.256C24.5677 46.3127 23.8105 47.0976 23.2586 47.9352C22.421 49.089 21.686 50.3149 20.8179 51.4438C20.4795 51.4909 20.1411 51.5131 19.8027 51.5104C19.8887 50.5535 20.571 49.849 21.073 49.089C21.9606 47.8076 22.8426 46.5263 23.7273 45.2449Z"
        fill="white" />
    <path fill-rule="evenodd" clip-rule="evenodd"
        d="M29.0476 45.2738C29.3776 45.2821 29.7104 45.2682 30.0405 45.2322C29.7992 47.3651 29.1169 49.4175 28.687 51.5171C28.4346 51.5143 27.927 51.5032 27.6719 51.4977C27.9603 49.3898 28.626 47.3567 29.0476 45.2738Z"
        fill="white" />
    <path fill-rule="evenodd" clip-rule="evenodd"
        d="M33.9453 34.1394C34.353 34.145 34.7635 34.145 35.174 34.1394C35.1685 34.5471 35.1685 34.9548 35.1768 35.3653C34.7663 35.3598 34.3586 35.3598 33.9481 35.3653C33.9536 34.9548 33.9536 34.5471 33.9453 34.1394Z"
        fill="white" fill-opacity="0.32549" />
    <path fill-rule="evenodd" clip-rule="evenodd"
        d="M39.409 34.0449C40.6876 34.2252 41.736 35.024 42.8621 35.5926C42.8538 35.8228 42.8427 36.286 42.8371 36.5162C41.5641 36.3498 40.5351 35.5288 39.4062 34.9935C39.4062 34.755 39.409 34.2807 39.409 34.0449Z"
        fill="white" fill-opacity="0.32549" />
    <path fill-rule="evenodd" clip-rule="evenodd"
        d="M45.3096 34.0752C47.4092 34.3553 49.4256 35.0459 51.4725 35.5646C51.4614 35.8059 51.442 36.2857 51.4309 36.527C49.3424 36.2497 47.3371 35.5535 45.293 35.0543C45.2985 34.8102 45.3068 34.322 45.3096 34.0752Z"
        fill="white" fill-opacity="0.32549" />
    <path fill-rule="evenodd" clip-rule="evenodd"
        d="M33.959 39.3169C34.2585 39.3308 34.5553 39.3419 34.8548 39.3557C35.3485 40.5068 36.0558 41.6023 36.1834 42.8726C35.9587 42.8837 35.5094 42.9031 35.2847 42.9114C34.7938 41.7327 34.045 40.6232 33.959 39.3169Z"
        fill="white" fill-opacity="0.32549" />
    <path fill-rule="evenodd" clip-rule="evenodd"
        d="M45.3165 39.2563C45.8047 39.334 46.3067 39.4311 46.695 39.7584C48.1983 40.8678 49.7293 41.9384 51.2187 43.0672C51.5626 43.303 51.349 43.8161 51.399 44.1683C49.7875 43.8549 48.6947 42.457 47.3301 41.6388C46.5757 40.926 45.0475 40.5544 45.3165 39.2563Z"
        fill="white" fill-opacity="0.32549" />
    <path fill-rule="evenodd" clip-rule="evenodd"
        d="M39.3281 39.2917C39.7802 39.3722 40.3349 39.2917 40.5984 39.7577C41.3667 40.7784 42.7063 41.5106 42.8644 42.8696C42.6398 42.8807 42.196 42.9029 41.9713 42.9168C41.1476 42.0209 40.2628 41.1778 39.514 40.2209C39.4696 39.9879 39.3753 39.5247 39.3281 39.2917Z"
        fill="white" fill-opacity="0.32549" />
    <path fill-rule="evenodd" clip-rule="evenodd"
        d="M33.8926 45.2645C34.1311 45.2534 34.6109 45.234 34.8495 45.2229C35.3432 47.3086 35.97 49.3694 36.2557 51.4939C36.0088 51.5022 35.5151 51.5133 35.271 51.5189C34.8106 49.4359 34.1672 47.3863 33.8926 45.2645Z"
        fill="white" fill-opacity="0.32549" />
    <path fill-rule="evenodd" clip-rule="evenodd"
        d="M39.3145 45.2405C39.5502 45.2488 40.0189 45.2654 40.2519 45.2738C41.0285 46.4692 41.8578 47.6257 42.6649 48.8017C43.2252 49.6477 43.974 50.4298 44.1016 51.481C43.8576 51.4865 43.3722 51.4949 43.1281 51.5004C42.296 50.2606 41.4501 49.0347 40.6014 47.8088C40.0689 47.0072 39.3394 46.2584 39.3145 45.2405Z"
        fill="white" fill-opacity="0.32549" />
    <path fill-rule="evenodd" clip-rule="evenodd"
        d="M45.2344 45.2468C45.4563 45.2468 45.8945 45.2524 46.1164 45.2524C47.7639 46.9609 49.4446 48.6361 51.0894 50.3474C51.4333 50.6331 51.425 51.0963 51.5137 51.4957C51.2891 51.4957 50.8397 51.4957 50.6151 51.4957C48.9482 49.801 47.284 48.1008 45.6282 46.3923C45.2843 46.1066 45.312 45.6434 45.2344 45.2468Z"
        fill="white" fill-opacity="0.32549" />
</svg>