<svg width="64" height="64" viewBox="0 0 64 64" fill="none" xmlns="http://www.w3.org/2000/svg">
    <path opacity="0.1"
        d="M32 64C49.6731 64 64 49.6731 64 32C64 14.3269 49.6731 0 32 0C14.3269 0 0 14.3269 0 32C0 49.6731 14.3269 64 32 64Z"
        fill="white" />
    <mask id="mask0_3761_26022" style="mask-type:luminance" maskUnits="userSpaceOnUse" x="0" y="0"
        width="64" height="64">
        <path
            d="M32 64C49.6731 64 64 49.6731 64 32C64 14.3269 49.6731 0 32 0C14.3269 0 0 14.3269 0 32C0 49.6731 14.3269 64 32 64Z"
            fill="white" />
    </mask>
    <g mask="url(#mask0_3761_26022)">
        <path fill-rule="evenodd" clip-rule="evenodd"
            d="M26.923 47.2352H36.3968L43.9345 41.5885L44.041 41.4791L46.9483 32.1817L44.041 22.8843L36.3968 17.1282H26.9167L19.2725 22.8843L16.3652 32.1817L19.2788 41.4791L26.923 47.2352ZM36.1839 46.5668H27.1362L19.8178 41.036L17.017 32.1829L19.8178 23.3297L27.1362 17.799H36.1839L43.5085 23.3297L46.3093 32.1829L43.5085 41.036L36.1839 46.5668Z"
            fill="#E0E0E0" />
        <path fill-rule="evenodd" clip-rule="evenodd"
            d="M48.0317 45.6838L43.6144 41.5888L39.3035 39.9277L31.6593 40.9257L23.9086 39.9277L19.5978 41.5888L19.3848 40.9257L23.7958 39.155H23.9086L31.6593 40.2625L39.4163 39.155L39.5228 39.2645L44.0467 41.0351L48.4578 45.2395L48.0317 45.6838Z"
            fill="#E0E0E0" />
        <path fill-rule="evenodd" clip-rule="evenodd"
            d="M36.1835 47.5634L31.6596 41.1441L26.9227 47.5634L23.4766 39.7083L24.1219 39.3735L27.1358 46.237L31.6596 39.9272L36.077 46.237L39.0908 39.3735L43.1823 30.9646L44.1535 41.2535H43.5081L42.75 33.3984L39.7361 39.7083L36.1835 47.5634Z"
            fill="#E0E0E0" />
        <path fill-rule="evenodd" clip-rule="evenodd"
            d="M16.7969 31.8472H46.7346V32.5103H16.7969V31.8472Z" fill="#E0E0E0" />
        <path fill-rule="evenodd" clip-rule="evenodd"
            d="M43.1826 33.3986L39.4169 25.7623L36.1837 32.9543L31.6599 24.6549L27.0295 32.9543L23.7964 25.7623L20.0307 33.3986L19.166 23.2191L19.8177 23.1096L20.463 31.0742L23.7964 24.3265L27.0295 31.5185L31.6599 23.3285L36.0772 31.5185L39.4169 24.3265L42.7502 30.9647L43.2891 23.1096H43.9407L43.1826 33.3986Z"
            fill="#E0E0E0" />
        <path fill-rule="evenodd" clip-rule="evenodd"
            d="M36.0771 18.2368L39.0909 25.2098L39.7363 24.8814L36.1836 16.9104L31.6598 23.4392L26.9229 16.9104L23.5832 24.8814L24.1221 25.2098L27.1359 18.2368L31.6598 24.6561L36.0771 18.2368ZM42.7502 33.3989L43.5084 41.254H44.1538L43.1826 30.9651L39.4169 38.8202L36.1838 31.5188L31.6599 39.8182L27.0295 31.5188L23.7964 38.7108L20.0307 30.9651L19.166 41.254H19.8177L20.463 33.3989L23.7964 40.2625L27.0295 32.9546L31.6599 41.254L36.0772 32.9546L39.4169 40.2625L42.7502 33.3989Z"
            fill="#E0E0E0" />
        <path fill-rule="evenodd" clip-rule="evenodd"
            d="M39.4163 25.4348L31.5528 24.3273L23.7958 25.4348L19.3848 23.4388L19.5978 22.7756L23.9086 24.6557L31.5528 23.6642L39.4163 24.6557L43.6144 22.7756L43.9402 23.4388L39.4163 25.4348Z"
            fill="#E0E0E0" />
        <path fill-rule="evenodd" clip-rule="evenodd"
            d="M27.031 48.2262C27.7438 48.2262 28.3217 47.6324 28.3217 46.8998C28.3217 46.1673 27.7438 45.5735 27.031 45.5735C26.3181 45.5735 25.7402 46.1673 25.7402 46.8998C25.7402 47.6324 26.3181 48.2262 27.031 48.2262Z"
            fill="#E0E0E0" />
        <path fill-rule="evenodd" clip-rule="evenodd"
            d="M36.0779 48.2262C36.7907 48.2262 37.3686 47.6324 37.3686 46.8998C37.3686 46.1673 36.7907 45.5735 36.0779 45.5735C35.365 45.5735 34.7871 46.1673 34.7871 46.8998C34.7871 47.6324 35.365 48.2262 36.0779 48.2262Z"
            fill="#E0E0E0" />
        <path fill-rule="evenodd" clip-rule="evenodd"
            d="M27.031 18.8978C27.7438 18.8978 28.3217 18.304 28.3217 17.5715C28.3217 16.8389 27.7438 16.2451 27.031 16.2451C26.3181 16.2451 25.7402 16.8389 25.7402 17.5715C25.7402 18.304 26.3181 18.8978 27.031 18.8978Z"
            fill="#E0E0E0" />
        <path fill-rule="evenodd" clip-rule="evenodd"
            d="M36.0779 18.8978C36.7907 18.8978 37.3686 18.304 37.3686 17.5715C37.3686 16.8389 36.7907 16.2451 36.0779 16.2451C35.365 16.2451 34.7871 16.8389 34.7871 17.5715C34.7871 18.304 35.365 18.8978 36.0779 18.8978Z"
            fill="#E0E0E0" />
        <path fill-rule="evenodd" clip-rule="evenodd"
            d="M43.615 24.4357C44.3278 24.4357 44.9057 23.8418 44.9057 23.1093C44.9057 22.3768 44.3278 21.783 43.615 21.783C42.9021 21.783 42.3242 22.3768 42.3242 23.1093C42.3242 23.8418 42.9021 24.4357 43.615 24.4357Z"
            fill="#E0E0E0" />
        <path fill-rule="evenodd" clip-rule="evenodd"
            d="M19.4919 24.4357C20.2048 24.4357 20.7827 23.8418 20.7827 23.1093C20.7827 22.3768 20.2048 21.783 19.4919 21.783C18.7791 21.783 18.2012 22.3768 18.2012 23.1093C18.2012 23.8418 18.7791 24.4357 19.4919 24.4357Z"
            fill="#E0E0E0" />
        <path fill-rule="evenodd" clip-rule="evenodd"
            d="M19.4919 42.6947C20.2048 42.6947 20.7827 42.1009 20.7827 41.3684C20.7827 40.6358 20.2048 40.042 19.4919 40.042C18.7791 40.042 18.2012 40.6358 18.2012 41.3684C18.2012 42.1009 18.7791 42.6947 19.4919 42.6947Z"
            fill="#E0E0E0" />
        <path fill-rule="evenodd" clip-rule="evenodd"
            d="M16.7986 33.5072C17.5114 33.5072 18.0893 32.9134 18.0893 32.1809C18.0893 31.4483 17.5114 30.8545 16.7986 30.8545C16.0857 30.8545 15.5078 31.4483 15.5078 32.1809C15.5078 32.9134 16.0857 33.5072 16.7986 33.5072Z"
            fill="#E0E0E0" />
        <path fill-rule="evenodd" clip-rule="evenodd"
            d="M46.6286 33.5072C47.3415 33.5072 47.9194 32.9134 47.9194 32.1809C47.9194 31.4483 47.3415 30.8545 46.6286 30.8545C45.9158 30.8545 45.3379 31.4483 45.3379 32.1809C45.3379 32.9134 45.9158 33.5072 46.6286 33.5072Z"
            fill="#E0E0E0" />
        <path fill-rule="evenodd" clip-rule="evenodd"
            d="M42.9704 33.5072C43.6833 33.5072 44.2612 32.9134 44.2612 32.1809C44.2612 31.4483 43.6833 30.8545 42.9704 30.8545C42.2576 30.8545 41.6797 31.4483 41.6797 32.1809C41.6797 32.9134 42.2576 33.5072 42.9704 33.5072Z"
            fill="#E0E0E0" />
        <path fill-rule="evenodd" clip-rule="evenodd"
            d="M20.2439 33.5072C20.9567 33.5072 21.5346 32.9134 21.5346 32.1809C21.5346 31.4483 20.9567 30.8545 20.2439 30.8545C19.531 30.8545 18.9531 31.4483 18.9531 32.1809C18.9531 32.9134 19.531 33.5072 20.2439 33.5072Z"
            fill="#E0E0E0" />
        <path fill-rule="evenodd" clip-rule="evenodd"
            d="M27.031 33.5072C27.7438 33.5072 28.3217 32.9134 28.3217 32.1809C28.3217 31.4483 27.7438 30.8545 27.031 30.8545C26.3181 30.8545 25.7402 31.4483 25.7402 32.1809C25.7402 32.9134 26.3181 33.5072 27.031 33.5072Z"
            fill="#E0E0E0" />
        <path fill-rule="evenodd" clip-rule="evenodd"
            d="M36.0779 33.5072C36.7907 33.5072 37.3686 32.9134 37.3686 32.1809C37.3686 31.4483 36.7907 30.8545 36.0779 30.8545C35.365 30.8545 34.7871 31.4483 34.7871 32.1809C34.7871 32.9134 35.365 33.5072 36.0779 33.5072Z"
            fill="#E0E0E0" />
        <path fill-rule="evenodd" clip-rule="evenodd"
            d="M32.9352 24.2046C33.0494 23.4815 32.5716 22.8002 31.868 22.6829C31.1643 22.5655 30.5013 23.0565 30.3871 23.7796C30.2729 24.5027 30.7507 25.184 31.4544 25.3013C32.158 25.4187 32.821 24.9277 32.9352 24.2046Z"
            fill="#E0E0E0" />
        <path fill-rule="evenodd" clip-rule="evenodd"
            d="M23.7966 26.4249C24.5095 26.4249 25.0873 25.8311 25.0873 25.0986C25.0873 24.366 24.5095 23.7722 23.7966 23.7722C23.0837 23.7722 22.5059 24.366 22.5059 25.0986C22.5059 25.8311 23.0837 26.4249 23.7966 26.4249Z"
            fill="#E0E0E0" />
        <path fill-rule="evenodd" clip-rule="evenodd"
            d="M39.4177 26.4249C40.1306 26.4249 40.7084 25.8311 40.7084 25.0986C40.7084 24.366 40.1306 23.7722 39.4177 23.7722C38.7048 23.7722 38.127 24.366 38.127 25.0986C38.127 25.8311 38.7048 26.4249 39.4177 26.4249Z"
            fill="#E0E0E0" />
        <path fill-rule="evenodd" clip-rule="evenodd"
            d="M31.6599 41.9157C32.3727 41.9157 32.9506 41.3218 32.9506 40.5893C32.9506 39.8568 32.3727 39.2629 31.6599 39.2629C30.947 39.2629 30.3691 39.8568 30.3691 40.5893C30.3691 41.3218 30.947 41.9157 31.6599 41.9157Z"
            fill="#E0E0E0" />
        <path fill-rule="evenodd" clip-rule="evenodd"
            d="M23.7966 40.8087C24.5095 40.8087 25.0873 40.2149 25.0873 39.4824C25.0873 38.7498 24.5095 38.156 23.7966 38.156C23.0837 38.156 22.5059 38.7498 22.5059 39.4824C22.5059 40.2149 23.0837 40.8087 23.7966 40.8087Z"
            fill="#E0E0E0" />
        <path fill-rule="evenodd" clip-rule="evenodd"
            d="M39.4177 40.8087C40.1306 40.8087 40.7084 40.2149 40.7084 39.4824C40.7084 38.7498 40.1306 38.156 39.4177 38.156C38.7048 38.156 38.127 38.7498 38.127 39.4824C38.127 40.2149 38.7048 40.8087 39.4177 40.8087Z"
            fill="#E0E0E0" />
        <path fill-rule="evenodd" clip-rule="evenodd"
            d="M48.2465 47.2351C49.1981 47.2351 49.9696 46.4424 49.9696 45.4645C49.9696 44.4866 49.1981 43.6938 48.2465 43.6938C47.2949 43.6938 46.5234 44.4866 46.5234 45.4645C46.5234 46.4424 47.2949 47.2351 48.2465 47.2351Z"
            fill="#E0E0E0" />
    </g>
</svg>