<svg width="64" height="64" viewBox="0 0 64 64" fill="none" xmlns="http://www.w3.org/2000/svg">
<path opacity="0.2" d="M32 64C49.6731 64 64 49.6731 64 32C64 14.3269 49.6731 0 32 0C14.3269 0 0 14.3269 0 32C0 49.6731 14.3269 64 32 64Z" fill="white"/>
<path fill-rule="evenodd" clip-rule="evenodd" d="M13.3848 16.2096C12.8687 16.1923 12.304 16.1734 11.9114 16.5534C11.4138 16.955 11.2906 17.6318 11.313 18.2366C11.3213 21.4356 11.3225 24.6346 11.3238 27.8334C11.3263 33.9718 11.3287 40.1097 11.3802 46.2462C11.3162 47.3214 12.4938 47.9662 13.449 47.8062C14.3444 47.8292 14.8563 47.0723 15.3079 46.4046C15.3599 46.3278 15.411 46.2521 15.4618 46.179C18.569 42.2094 21.6906 38.251 24.8122 34.2926C25.057 34.5598 25.3018 34.8302 25.5226 35.1198C26.5083 36.4 27.5058 37.6701 28.5035 38.9403L28.5036 38.9405L28.5043 38.9414L28.505 38.9423C29.1005 39.7004 29.696 40.4586 30.289 41.219C31.0474 42.3422 32.9322 42.331 33.7066 41.2286C34.4096 40.3185 35.1178 39.4118 35.8261 38.5049C36.7315 37.3456 37.6372 36.1861 38.5322 35.019C38.7146 34.7598 38.9466 34.5454 39.1898 34.3454C40.5248 36.0511 41.8677 37.7509 43.2106 39.4508C45.0094 41.7277 46.8083 44.0047 48.5882 46.2958C48.6603 46.3927 48.7306 46.4935 48.8015 46.5951L48.8015 46.5952L48.8016 46.5953C49.1241 47.0576 49.4574 47.5355 50.0122 47.723C50.7946 47.915 51.7546 47.8526 52.305 47.1886C52.6468 46.775 52.6359 46.2397 52.6254 45.7229V45.7228V45.7227C52.6223 45.5718 52.6192 45.4225 52.625 45.2782C52.649 43.8926 52.6698 42.507 52.6602 41.1198C52.6602 37.5042 52.6659 33.889 52.6716 30.2737V30.2737V30.2736C52.6779 26.2065 52.6843 22.1394 52.6826 18.0718C52.6842 17.523 52.5482 16.8958 52.0602 16.5726C51.4842 16.0958 50.6826 16.1662 49.9914 16.2638C49.4725 16.4533 49.1382 16.9019 48.816 17.3342L48.8158 17.3344L48.8157 17.3346C48.7516 17.4206 48.688 17.506 48.6234 17.5886C47.4323 19.1022 46.2465 20.62 45.0608 22.1376C43.5104 24.1223 41.96 26.1067 40.3978 28.0814C40.2781 28.229 40.1625 28.3806 40.0468 28.5323L40.0468 28.5324C39.7437 28.9299 39.4401 29.3281 39.0602 29.6558C38.4103 28.8354 37.7707 28.0067 37.1311 27.1781C36.3661 26.187 35.6012 25.1959 34.8186 24.219C34.6776 24.0414 34.542 23.8586 34.4063 23.6756L34.4063 23.6756L34.4062 23.6755C34.0433 23.1862 33.6799 22.6963 33.2106 22.3038C32.6762 21.8622 31.9178 21.9358 31.2794 22.035C30.5882 22.2953 30.1568 22.8921 29.7322 23.4794C29.572 23.7009 29.4128 23.9211 29.241 24.1214C28.6228 24.8782 28.0299 25.6556 27.4371 26.4329L27.4371 26.433C26.5922 27.5408 25.7475 28.6484 24.8298 29.6958C24.0716 28.7306 23.3124 27.7661 22.5532 26.8017C19.9561 23.5026 17.3593 20.2038 14.8026 16.8734C14.5002 16.523 14.0954 16.195 13.6058 16.2158C13.5336 16.2146 13.4597 16.2121 13.3848 16.2096ZM15.1405 41.1268C15.1453 35.098 15.1485 29.0692 15.1437 23.0404C15.1463 22.9891 15.1469 22.9362 15.1474 22.8828V22.8828C15.1498 22.6465 15.1523 22.3995 15.3389 22.226C15.796 22.6788 16.184 23.1898 16.5719 23.7008L16.5719 23.7008L16.5719 23.7008C16.7625 23.9518 16.953 24.2028 17.1517 24.4468C18.2294 25.8073 19.2991 27.1747 20.3686 28.5419L20.3687 28.542L20.3688 28.5421C21.2174 29.6269 22.0658 30.7115 22.9181 31.7924C23.1 32.0659 22.8896 32.3075 22.6967 32.5292C22.6299 32.6058 22.5653 32.6801 22.5197 32.7524C21.814 33.6571 21.1072 34.561 20.4005 35.4648L20.4003 35.465C19.2099 36.9874 18.0195 38.5096 16.8349 40.0356C16.738 40.159 16.6418 40.2829 16.5457 40.407L16.5455 40.4071L16.5453 40.4074C16.1538 40.9121 15.7621 41.4171 15.3229 41.882C15.1981 41.6484 15.1213 41.3924 15.1405 41.1268ZM41.8484 30.8074L41.848 30.808L41.0794 31.789C40.8846 32.0308 41.0767 32.2714 41.2399 32.476C41.2711 32.515 41.3012 32.5528 41.3274 32.589C41.8671 33.2216 42.3707 33.8829 42.8743 34.5442C43.2456 35.0318 43.6169 35.5193 44.0026 35.9954C44.6588 36.8033 45.2943 37.6282 45.9297 38.453L45.9299 38.4532C46.822 39.6112 47.7141 40.7692 48.6634 41.8802C48.8026 41.7058 48.8682 41.5074 48.8602 41.285C48.8494 36.1401 48.8512 30.9953 48.8529 25.8495V25.8444L48.8538 23.0386C48.8602 22.7522 48.8442 22.461 48.6666 22.221C48.107 22.7859 47.6282 23.4189 47.1494 24.0519C46.9123 24.3654 46.6752 24.6789 46.4282 24.9842C44.8944 26.9192 43.3712 28.8637 41.8484 30.8074ZM30.5339 26.9994C30.832 26.6069 31.1304 26.214 31.5034 25.8921C32.0506 25.5833 32.6426 25.9369 32.9546 26.4057C33.7353 27.4237 34.5329 28.4297 35.3304 29.4357C35.9253 30.1862 36.5203 30.9366 37.1082 31.6921C37.3946 31.9731 37.1375 32.2733 36.9266 32.5196C36.8865 32.5664 36.8481 32.6113 36.8154 32.6537C35.521 34.2953 34.2298 35.9417 32.9466 37.5913C32.915 37.6273 32.8832 37.6651 32.8509 37.7035C32.6282 37.9685 32.3811 38.2624 32.001 38.2121C31.5242 38.2729 31.2106 37.8729 30.953 37.5401C30.2937 36.6739 29.6202 35.8187 28.9466 34.9636C28.172 33.9801 27.3974 32.9965 26.6442 31.9961C27.2702 31.1251 27.9411 30.287 28.6122 29.4488C29.116 28.8195 29.6199 28.19 30.105 27.5465C30.2531 27.3692 30.3935 27.1843 30.5339 26.9994Z" fill="white"/>
<path opacity="0.2" fill-rule="evenodd" clip-rule="evenodd" d="M33.5008 0H30.3472C29.9117 0.0558486 29.4754 0.104238 29.0391 0.15263C28.4253 0.220693 27.8116 0.288762 27.2 0.3776C23.2048 0.9552 19.3648 2.3792 15.8576 4.3584C12.9312 6.0592 10.3456 8.2832 8.0432 10.7536C5.5792 13.6224 3.5312 16.8656 2.1712 20.4032C0.8656 23.7168 0.1792 27.256 0 30.8096V33.6608C0.2864 37.9408 1.3104 42.1904 3.224 46.0416C5.8736 51.528 10.1616 56.1952 15.3552 59.3696C19.952 62.1712 25.2656 63.7872 30.6464 64H33.3552C39.1984 63.7664 44.968 61.8864 49.8176 58.616C56.824 53.9376 61.8832 46.4016 63.4224 38.1056C63.4979 37.7355 63.5529 37.3614 63.6079 36.9874C63.703 36.3395 63.7981 35.6921 64 35.0672V30.1856C63.9681 29.9153 63.9378 29.6447 63.9076 29.374C63.8346 28.722 63.7617 28.0698 63.6656 27.4208C62.9152 22.0656 60.7472 16.912 57.4528 12.6256C53.1312 6.8176 46.6944 2.6752 39.6768 0.952C37.656 0.4272 35.576 0.1984 33.5008 0ZM11.3138 18.2367C11.2914 17.6319 11.4146 16.9551 11.9122 16.5535C12.3048 16.1735 12.8694 16.1924 13.3856 16.2097C13.4605 16.2122 13.5344 16.2147 13.6066 16.2159C14.0962 16.1951 14.501 16.5231 14.8034 16.8735C17.36 20.2039 19.9569 23.5027 22.5539 26.8017C23.3131 27.7662 24.0724 28.7306 24.8306 29.6959C25.7483 28.6485 26.593 27.5409 27.4378 26.4331C28.0307 25.6557 28.6236 24.8783 29.2418 24.1215C29.4136 23.9212 29.5728 23.701 29.733 23.4795C30.1576 22.8921 30.589 22.2953 31.2802 22.0351C31.9186 21.9359 32.677 21.8623 33.2114 22.3039C33.6807 22.6964 34.0441 23.1863 34.407 23.6756C34.5427 23.8586 34.6783 24.0414 34.8194 24.2191C35.602 25.196 36.3669 26.1871 37.1319 27.1782C37.7715 28.0069 38.4111 28.8355 39.061 29.6559C39.4409 29.3282 39.7444 28.93 40.0476 28.5324C40.1633 28.3807 40.2789 28.2291 40.3986 28.0815C41.9608 26.1067 43.5112 24.1222 45.0618 22.1375C46.2474 20.6199 47.4331 19.1022 48.6242 17.5887C48.6888 17.506 48.7526 17.4205 48.8168 17.3343C49.1389 16.902 49.4733 16.4534 49.9922 16.2639C50.6834 16.1663 51.485 16.0959 52.061 16.5727C52.549 16.8959 52.685 17.5231 52.6834 18.0719C52.6851 22.1395 52.6787 26.2066 52.6724 30.2738C52.6667 33.889 52.661 37.5043 52.661 41.1199C52.6706 42.5071 52.6498 43.8927 52.6258 45.2783C52.62 45.4226 52.6231 45.572 52.6262 45.723C52.6367 46.2398 52.6476 46.7751 52.3058 47.1887C51.7554 47.8527 50.7954 47.9151 50.013 47.7231C49.4582 47.5356 49.1249 47.0577 48.8024 46.5954C48.7315 46.4937 48.6611 46.3928 48.589 46.2959C46.809 44.0047 45.0102 41.7277 43.2113 39.4508C41.8685 37.751 40.5256 36.0512 39.1906 34.3455C38.9474 34.5455 38.7154 34.7599 38.533 35.0191C37.638 36.1862 36.7323 37.3457 35.8268 38.5051C35.1185 39.4119 34.4104 40.3186 33.7074 41.2287C32.933 42.3311 31.0482 42.3423 30.2898 41.2191C29.6964 40.4581 29.1004 39.6994 28.5046 38.9407C27.5068 37.6704 26.5091 36.4002 25.5234 35.1199C25.3026 34.8303 25.0578 34.5599 24.813 34.2927C21.6914 38.2511 18.5698 42.2095 15.4626 46.1791C15.4118 46.2522 15.3606 46.3279 15.3087 46.4047C14.8571 47.0724 14.3452 47.8293 13.4498 47.8063C12.4946 47.9663 11.317 47.3215 11.381 46.2463C11.3295 40.1098 11.327 33.9719 11.3246 27.8335C11.3233 24.6347 11.322 21.4357 11.3138 18.2367Z" fill="white"/>
<path opacity="0.2" fill-rule="evenodd" clip-rule="evenodd" d="M15.1448 23.0407C15.1592 22.7623 15.1112 22.4391 15.34 22.2263C16.0216 22.9015 16.5496 23.7063 17.1528 24.4471C19.0856 26.8871 20.9928 29.3495 22.9192 31.7927C23.164 32.1607 22.6984 32.4711 22.5208 32.7527C20.6264 35.1815 18.724 37.6039 16.836 40.0359C16.3448 40.6615 15.8712 41.3031 15.324 41.8823C15.1992 41.6487 15.1224 41.3927 15.1416 41.1271C15.1464 35.0983 15.1496 29.0695 15.1448 23.0407Z" fill="white"/>
<path opacity="0.2" fill-rule="evenodd" clip-rule="evenodd" d="M46.4289 24.9844C47.1745 24.0628 47.8305 23.066 48.6673 22.2212C48.8449 22.4612 48.8609 22.7524 48.8545 23.0388C48.8529 29.122 48.8481 35.2036 48.8609 41.2852C48.8689 41.5076 48.8033 41.706 48.6641 41.8804C47.0385 39.978 45.5809 37.938 44.0033 35.9956C43.0945 34.874 42.2657 33.6884 41.3281 32.5892C41.1649 32.3636 40.8481 32.0772 41.0801 31.7892C42.8593 29.5188 44.6369 27.2452 46.4289 24.9844Z" fill="white"/>
<path opacity="0.2" fill-rule="evenodd" clip-rule="evenodd" d="M31.5037 25.8911C32.0509 25.5823 32.6429 25.9359 32.9549 26.4047C34.3181 28.1823 35.7325 29.9231 37.1085 31.6911C37.4493 32.0255 37.0205 32.3871 36.8157 32.6527C35.5213 34.2943 34.2301 35.9407 32.9469 37.5903C32.6973 37.8751 32.4365 38.2687 32.0013 38.2111C31.5245 38.2719 31.2109 37.8719 30.9533 37.5391C29.5357 35.6767 28.0525 33.8655 26.6445 31.9951C27.7405 30.4703 28.9741 29.0463 30.1053 27.5455C30.5677 26.9919 30.9549 26.3647 31.5037 25.8911Z" fill="white"/>
</svg>
