<svg width="24" height="24" viewBox="0 0 24 24" fill="none" xmlns="http://www.w3.org/2000/svg">
<g clip-path="url(#clip0_9294_34692)">
<path d="M12.0303 2C6.51027 2 2.03027 6.48 2.03027 12C2.03027 17.52 6.51027 22 12.0303 22C17.5503 22 22.0303 17.52 22.0303 12C22.0303 9.35 20.9803 6.8 19.1103 4.92C17.2303 3.05 14.6903 2 12.0303 2Z" stroke="#F5F5F5" stroke-width="1.5" stroke-linecap="round" stroke-linejoin="round"/>
<path d="M2.5498 15.1998L2.6098 15.1398C4.1798 13.5698 7.13981 16.8998 8.89981 15.1398C10.4698 13.5698 8.10982 11.2098 10.4698 8.84978C12.6898 6.62978 11.2598 4.91977 8.89981 2.55977L8.84982 2.50977" stroke="#F5F5F5" stroke-width="1.5" stroke-linecap="round" stroke-linejoin="round"/>
<path d="M11.45 21.9698C11.37 21.8098 11.31 21.6398 11.26 21.4598C10.96 20.2998 11.29 19.0698 12.14 18.2298C12.99 17.3898 14.22 17.0698 15.38 17.3798C16.53 17.6998 17.43 18.5998 17.73 19.7598C17.76 19.8898 17.78 20.0198 17.79 20.1598" stroke="#F5F5F5" stroke-width="1.5" stroke-linecap="round" stroke-linejoin="round"/>
</g>
<defs>
<clipPath id="clip0_9294_34692">
<rect width="24" height="24" fill="white"/>
</clipPath>
</defs>
</svg>
